<svg id="Слой_1" data-name="Слой 1" xmlns="http://www.w3.org/2000/svg" viewBox="0 0 329.36 219.58"><defs><style>.cls-1,.cls-2,.cls-3{fill:none;stroke-linecap:round;stroke-miterlimit:10;}.cls-1,.cls-3{stroke:#fff18f;}.cls-1{stroke-width:6px;}.cls-2{stroke:#ff499f;stroke-width:7px;}.cls-3{stroke-width:5px;}.cls-4{fill:#00f5ff;}</style></defs><title>rak_star_2</title><line class="cls-1" x1="70.89" y1="189.34" x2="63.86" y2="216.58"/><line class="cls-1" x1="53.75" y1="199.45" x2="80.99" y2="206.47"/><line class="cls-1" x1="22.89" y1="11.7" x2="3.34" y2="31.93"/><line class="cls-1" x1="3" y1="12.04" x2="23.23" y2="31.59"/><line class="cls-2" x1="298.71" y1="11.09" x2="325.86" y2="23.06"/><line class="cls-2" x1="306.3" y1="30.65" x2="318.27" y2="3.5"/><line class="cls-2" x1="137.51" y1="111.77" x2="160.89" y2="114.11"/><line class="cls-2" x1="148.03" y1="124.63" x2="150.37" y2="101.25"/><line class="cls-3" x1="216.47" y1="78.51" x2="205.48" y2="90.93"/><line class="cls-3" x1="204.77" y1="79.23" x2="217.19" y2="90.22"/><path class="cls-4" d="M79.69,930.67a2.49,2.49,0,1,0-2.93,4,2.58,2.58,0,0,0,.42.25,2.49,2.49,0,0,0,3.07-.8,2.23,2.23,0,0,0,.24-.4A2.49,2.49,0,0,0,79.69,930.67Z" transform="translate(-1.04 -870.26)"/><path class="cls-4" d="M72.85,925.69a2.14,2.14,0,0,0-.41-.25,2.5,2.5,0,0,0-2.52,4.29,2,2,0,0,0,.4.22,2.49,2.49,0,0,0,3.08-.77,2.92,2.92,0,0,0,.25-.4A2.51,2.51,0,0,0,72.85,925.69Z" transform="translate(-1.04 -870.26)"/><path class="cls-4" d="M59.17,915.74a2.14,2.14,0,0,0-.41-.25,2.5,2.5,0,0,0-2.52,4.28,2.05,2.05,0,0,0,.4.23,2.48,2.48,0,0,0,3.08-.78,2.06,2.06,0,0,0,.25-.4A2.5,2.5,0,0,0,59.17,915.74Z" transform="translate(-1.04 -870.26)"/><path class="cls-4" d="M66,920.72a2.49,2.49,0,1,0-2.93,4,2.58,2.58,0,0,0,.42.25,2.49,2.49,0,0,0,3.07-.8,2.23,2.23,0,0,0,.24-.4A2.49,2.49,0,0,0,66,920.72Z" transform="translate(-1.04 -870.26)"/><path class="cls-4" d="M86.54,935.64a2.65,2.65,0,0,0-.4-.24,2.5,2.5,0,0,0-2.54,4.28c.14.08.27.16.42.23a2.47,2.47,0,0,0,3.06-.78,1.8,1.8,0,0,0,.25-.4A2.53,2.53,0,0,0,86.54,935.64Z" transform="translate(-1.04 -870.26)"/><path class="cls-4" d="M101,948.68a2.53,2.53,0,0,0-.79-3.09,2.65,2.65,0,0,0-.4-.24,2.5,2.5,0,0,0-2.54,4.28,2.45,2.45,0,0,0,3.48-.55A1.8,1.8,0,0,0,101,948.68Z" transform="translate(-1.04 -870.26)"/><path class="cls-4" d="M106.64,950.33a2.49,2.49,0,1,0,1,3.73,2,2,0,0,0,.24-.4,2.49,2.49,0,0,0-.79-3.08A2.14,2.14,0,0,0,106.64,950.33Z" transform="translate(-1.04 -870.26)"/><path class="cls-4" d="M93.37,940.63a1.73,1.73,0,0,0-.41-.25,2.49,2.49,0,0,0-2.52,4.27,3.52,3.52,0,0,0,.4.24,2.51,2.51,0,0,0,3.09-.79,2.23,2.23,0,0,0,.24-.4A2.49,2.49,0,0,0,93.37,940.63Z" transform="translate(-1.04 -870.26)"/><path class="cls-4" d="M117.8,964.55a2.58,2.58,0,0,0,.42.25,2.5,2.5,0,0,0,3.06-.79,1.63,1.63,0,0,0,.24-.4,2.49,2.49,0,0,0-.79-3.08,2.14,2.14,0,0,0-.41-.25,2.49,2.49,0,0,0-2.52,4.27Z" transform="translate(-1.04 -870.26)"/><path class="cls-4" d="M127.18,965.25a2.52,2.52,0,0,0-3.09.8,2.49,2.49,0,0,0,.55,3.48,2.12,2.12,0,0,0,.4.24,2.49,2.49,0,0,0,3.09-.79,2.23,2.23,0,0,0,.24-.4,2.52,2.52,0,0,0-.79-3.08A1.8,1.8,0,0,0,127.18,965.25Z" transform="translate(-1.04 -870.26)"/><path class="cls-4" d="M134,970.23a2.49,2.49,0,0,0-2.52,4.27,2.58,2.58,0,0,0,.42.25,2.37,2.37,0,0,0,1.9.06,2.89,2.89,0,0,1,1-.7L135,974a2.42,2.42,0,0,0,.25-.4,2.5,2.5,0,0,0-.8-3.09A2.25,2.25,0,0,0,134,970.23Z" transform="translate(-1.04 -870.26)"/><path class="cls-4" d="M114.69,958.63a2.52,2.52,0,0,0-.79-3.08,2,2,0,0,0-.42-.25,2.5,2.5,0,1,0,1,3.73A2.23,2.23,0,0,0,114.69,958.63Z" transform="translate(-1.04 -870.26)"/><path class="cls-4" d="M52.33,910.77a2.49,2.49,0,1,0,.56,3.47,2.23,2.23,0,0,0,.24-.4A2.49,2.49,0,0,0,52.33,910.77Z" transform="translate(-1.04 -870.26)"/><path class="cls-4" d="M38.66,900.8a2.23,2.23,0,0,0-.4-.24,2.5,2.5,0,0,0-2.54,4.28,2.36,2.36,0,0,0,.4.24,2.51,2.51,0,0,0,3.09-.79,2.23,2.23,0,0,0,.24-.4A2.53,2.53,0,0,0,38.66,900.8Z" transform="translate(-1.04 -870.26)"/><path class="cls-4" d="M45.49,905.79a2.14,2.14,0,0,0-.41-.25,2.5,2.5,0,0,0-2.52,4.28,3.5,3.5,0,0,0,.42.24,2.5,2.5,0,0,0,3.06-.79,2.06,2.06,0,0,0,.25-.4A2.5,2.5,0,0,0,45.49,905.79Z" transform="translate(-1.04 -870.26)"/><path class="cls-4" d="M116.08,1006a2.56,2.56,0,0,0-.9-.74,2.5,2.5,0,1,0,1.19,3.33A2.47,2.47,0,0,0,116.08,1006Z" transform="translate(-1.04 -870.26)"/><path class="cls-4" d="M103.16,1016.11a2.24,2.24,0,0,0-.57-.35,2.45,2.45,0,0,0-2.93.62,2.48,2.48,0,0,0,.26,3.52,2.27,2.27,0,0,0,.56.37,2.52,2.52,0,0,0,3-.64,2,2,0,0,0,.36-.56A2.48,2.48,0,0,0,103.16,1016.11Z" transform="translate(-1.04 -870.26)"/><path class="cls-4" d="M122.59,1001a2.71,2.71,0,0,0-.91-.75,2.5,2.5,0,0,0-3,3.78,2.42,2.42,0,0,0,.92.74,2.48,2.48,0,0,0,2.57-.28,2.69,2.69,0,0,0,.74-.92A2.5,2.5,0,0,0,122.59,1001Z" transform="translate(-1.04 -870.26)"/><path class="cls-4" d="M135.23,991.06l.13-.36a2.16,2.16,0,0,0-.68-.48,2.49,2.49,0,0,0-3,3.77,2.44,2.44,0,0,0,.92.74,2.47,2.47,0,0,0,3.07-.8A3,3,0,0,1,135.23,991.06Z" transform="translate(-1.04 -870.26)"/><path class="cls-4" d="M73.19,1051.06a2,2,0,0,0,.56.36,2.47,2.47,0,0,0,2.94-.62,2.47,2.47,0,0,0-.26-3.52,2.28,2.28,0,0,0-.57-.36,2.48,2.48,0,0,0-2.67,4.14Z" transform="translate(-1.04 -870.26)"/><path class="cls-4" d="M78.53,1044.83a2.8,2.8,0,0,0,.56.36,2.5,2.5,0,0,0,3-.63,2.28,2.28,0,0,0,.36-.57,2.49,2.49,0,0,0-.64-3,2,2,0,0,0-.56-.36,2.49,2.49,0,0,0-2.68,4.15Z" transform="translate(-1.04 -870.26)"/><path class="cls-4" d="M87.13,1034.81a2.24,2.24,0,0,0-.57-.35,2.48,2.48,0,0,0-2.68,4.13,2.31,2.31,0,0,0,.55.37,2.49,2.49,0,0,0,3-.63,2.28,2.28,0,0,0,.36-.57A2.49,2.49,0,0,0,87.13,1034.81Z" transform="translate(-1.04 -870.26)"/><path class="cls-4" d="M129.09,996a2.51,2.51,0,0,0-.92-.73,2.49,2.49,0,0,0-3,3.78,2.46,2.46,0,0,0,3.5.45,2.48,2.48,0,0,0,.44-3.5Z" transform="translate(-1.04 -870.26)"/><path class="cls-4" d="M92.47,1028.59a2.18,2.18,0,0,0-.57-.36,2.46,2.46,0,0,0-2.94.62,2.49,2.49,0,0,0,.26,3.51,2.38,2.38,0,0,0,.58.37,2.47,2.47,0,0,0,2.94-.64,2.87,2.87,0,0,0,.36-.57A2.48,2.48,0,0,0,92.47,1028.59Z" transform="translate(-1.04 -870.26)"/><path class="cls-4" d="M97.63,1022a2.26,2.26,0,0,0-.56-.35,2.49,2.49,0,0,0-2.69,4.13,2.34,2.34,0,0,0,.58.36,2.46,2.46,0,0,0,2.94-.64,2.23,2.23,0,0,0,.36-.56A2.48,2.48,0,0,0,97.63,1022Z" transform="translate(-1.04 -870.26)"/><path class="cls-4" d="M109.13,1010.77a2.18,2.18,0,0,0-.57-.36,2.49,2.49,0,0,0-2.69,4.14,3,3,0,0,0,.59.36,2.46,2.46,0,0,0,2.94-.64,2.24,2.24,0,0,0,.35-.57A2.47,2.47,0,0,0,109.13,1010.77Z" transform="translate(-1.04 -870.26)"/><path class="cls-4" d="M170.77,972.16a2.5,2.5,0,0,0-3.42,3.08,2.49,2.49,0,0,0,4.61.22,2.48,2.48,0,0,0,.1-1.86A2.45,2.45,0,0,0,170.77,972.16Z" transform="translate(-1.04 -870.26)"/><path class="cls-4" d="M267,918.94a2.68,2.68,0,0,0-1-.86,2.5,2.5,0,0,0-3.13,3.66,2.41,2.41,0,0,0,1,.85,2.45,2.45,0,0,0,2.45-.19,2.48,2.48,0,0,0,.69-3.46Z" transform="translate(-1.04 -870.26)"/><path class="cls-4" d="M260.25,923.5a2.49,2.49,0,1,0-.66,3.47,2.44,2.44,0,0,0,.85-1A2.51,2.51,0,0,0,260.25,923.5Z" transform="translate(-1.04 -870.26)"/><path class="cls-4" d="M233.28,941.77a2.54,2.54,0,0,0-1-.86,2.48,2.48,0,0,0-2.45.19,2.52,2.52,0,0,0-.67,3.47,2.6,2.6,0,0,0,1,.86,2.48,2.48,0,0,0,2.45-.19,2.58,2.58,0,0,0,.86-1A2.51,2.51,0,0,0,233.28,941.77Z" transform="translate(-1.04 -870.26)"/><path class="cls-4" d="M273.73,914.37a2.31,2.31,0,0,0-1-.85,2.49,2.49,0,0,0-2.13,4.51,2.57,2.57,0,0,0,2.48-.2,2.48,2.48,0,0,0,.85-1A2.46,2.46,0,0,0,273.73,914.37Z" transform="translate(-1.04 -870.26)"/><path class="cls-4" d="M246.77,932.65a2.32,2.32,0,0,0-1-.86,2.48,2.48,0,0,0-3.12,3.64,2.42,2.42,0,0,0,1,.87,2.5,2.5,0,0,0,2.46-.2,2.54,2.54,0,0,0,.85-1A2.48,2.48,0,0,0,246.77,932.65Z" transform="translate(-1.04 -870.26)"/><path class="cls-4" d="M240,937.21a2.5,2.5,0,0,0-4.14,2.79,2.59,2.59,0,0,0,1,.86,2.5,2.5,0,0,0,2.46-.19,2.54,2.54,0,0,0,.86-1A2.48,2.48,0,0,0,240,937.21Z" transform="translate(-1.04 -870.26)"/><path class="cls-4" d="M280.48,909.79a2.49,2.49,0,0,0-4.12,2.81,2.6,2.6,0,0,0,1,.86,2.49,2.49,0,0,0,3.11-3.67Z" transform="translate(-1.04 -870.26)"/><path class="cls-4" d="M294,900.67a2.49,2.49,0,0,0-4.12,2.8,2.44,2.44,0,0,0,1,.85,2.5,2.5,0,0,0,2.47-.2,2.45,2.45,0,0,0,.87-1A2.48,2.48,0,0,0,294,900.67Z" transform="translate(-1.04 -870.26)"/><path class="cls-4" d="M301,895.12a2.54,2.54,0,0,0-1-.85,2.49,2.49,0,0,0-3.12,3.65,2.55,2.55,0,0,0,1,.86,2.45,2.45,0,0,0,2.46-.21,2.41,2.41,0,0,0,.88-1A2.51,2.51,0,0,0,301,895.12Z" transform="translate(-1.04 -870.26)"/><path class="cls-4" d="M287.23,905.23a2.54,2.54,0,0,0-1-.85,2.49,2.49,0,0,0-3.12,3.65,2.55,2.55,0,0,0,1,.86,2.5,2.5,0,0,0,2.46-.19,2.47,2.47,0,0,0,.85-1A2.51,2.51,0,0,0,287.23,905.23Z" transform="translate(-1.04 -870.26)"/><path class="cls-4" d="M253.5,928.06a2.44,2.44,0,0,0-1-.85,2.49,2.49,0,0,0-3.12,3.65,2.3,2.3,0,0,0,1,.86,2.5,2.5,0,0,0,2.46-.19,2.44,2.44,0,0,0,.85-1A2.52,2.52,0,0,0,253.5,928.06Z" transform="translate(-1.04 -870.26)"/><path class="cls-4" d="M178.45,969.47a2.39,2.39,0,0,0-1.86-.08,2.46,2.46,0,0,0-1.54,3.16,2.43,2.43,0,0,0,1.28,1.45,2.51,2.51,0,0,0,3.32-1.21,2.51,2.51,0,0,0-1.2-3.32Z" transform="translate(-1.04 -870.26)"/><path class="cls-4" d="M193.83,964.13A2.44,2.44,0,0,0,192,964a2.48,2.48,0,0,0-1.54,3.17,2.44,2.44,0,0,0,1.29,1.45,2.49,2.49,0,0,0,1.88.09,2.55,2.55,0,0,0,1.44-1.31,2.44,2.44,0,0,0,.1-1.86A2.55,2.55,0,0,0,193.83,964.13Z" transform="translate(-1.04 -870.26)"/><path class="cls-4" d="M186.16,966.81a2.4,2.4,0,0,0-1.88-.09,2.49,2.49,0,0,0,1.62,4.7,2.52,2.52,0,0,0,1.55-3.18A2.47,2.47,0,0,0,186.16,966.81Z" transform="translate(-1.04 -870.26)"/><path class="cls-4" d="M201.53,961.45a2.46,2.46,0,0,0-1.87-.09,2.51,2.51,0,0,0-1.54,3.17,2.55,2.55,0,0,0,1.31,1.44,2.48,2.48,0,0,0,1.86.1,2.55,2.55,0,0,0,1.44-1.31,2.49,2.49,0,0,0-1.2-3.31Z" transform="translate(-1.04 -870.26)"/><path class="cls-4" d="M226.53,946.35a2.4,2.4,0,0,0-1-.86,2.48,2.48,0,0,0-3.11,3.64,2.32,2.32,0,0,0,1,.86,2.48,2.48,0,0,0,2.45-.19,2.44,2.44,0,0,0,.85-1A2.5,2.5,0,0,0,226.53,946.35Z" transform="translate(-1.04 -870.26)"/></svg>