<?xml version="1.0" encoding="utf-8"?>
<!-- Generator: Adobe Illustrator 23.1.0, SVG Export Plug-In . SVG Version: 6.00 Build 0)  -->
<svg version="1.1" id="Слой_1" xmlns="http://www.w3.org/2000/svg" xmlns:xlink="http://www.w3.org/1999/xlink" x="0px" y="0px"
	 viewBox="0 0 128.89 51.8" style="enable-background:new 0 0 128.89 51.8;" xml:space="preserve">
<style type="text/css">
	.st0{fill:#FFFFFF;}
</style>
<g>
	<g>
		<path class="st0" d="M0,0h34.48v31.3H11.54v20.5H0V0z M23.01,19.83v-8.36H11.54v8.36H23.01z M23.01,19.76v0.07H11.54v-0.07H23.01z
			 M11.54,31.3h14.95H11.54z"/>
		<path class="st0" d="M82.88,19.98v11.47H77.7V51.8H66.23V31.45H54.09V51.8H42.62V19.98L59.05,0H77.7v19.98H82.88z M66.23,19.98
			V9.47l-0.07,0.07l-8.58,10.43H66.23z"/>
		<path class="st0" d="M119.36,52.69L101.75,31.3v20.5H90.28V0h11.47v19.76h11.54V0h11.47v31.3h-7.99v0.07l11.54,13.91L119.36,52.69
			z"/>
	</g>
</g>
</svg>
