<?xml version="1.0" encoding="utf-8"?>
<!-- Generator: Adobe Illustrator 23.1.0, SVG Export Plug-In . SVG Version: 6.00 Build 0)  -->
<svg version="1.1" id="Слой_1" xmlns="http://www.w3.org/2000/svg" xmlns:xlink="http://www.w3.org/1999/xlink" x="0px" y="0px"
	 viewBox="0 0 244.4 269" style="enable-background:new 0 0 244.4 269;" xml:space="preserve">
<style type="text/css">
	.st0{display:none;fill:url(#SVGID_1_);}
	.st1{fill:url(#SVGID_2_);}
</style>
<linearGradient id="SVGID_1_" gradientUnits="userSpaceOnUse" x1="25.5867" y1="134.5703" x2="347.6064" y2="134.5703" gradientTransform="matrix(1 0 0 -1 0 269.2756)">
	<stop  offset="3.260000e-02" style="stop-color:#00F5FF"/>
	<stop  offset="1" style="stop-color:#000000"/>
</linearGradient>
<path class="st0" d="M173.4,122.8c0,24.6-0.1,49.1,0.1,73.7c0.1,11.5,2.1,22.8,6.3,33.7c0.9,2.5,2.1,4.9,3.6,7.1
	c7.2,10.7,16.9,12.3,27.2,4.6c8-5.9,13.6-13.8,18.9-22c1.9-2.9,1.1-4.7-1.9-6.3c-4.6-2.6-9-5.6-13.6-8.2c-3-1.7-2.8-3.1-0.1-4.9
	c7.6-5.1,15.2-10.3,22.8-15.5c11.3-7.6,22.6-15.2,33.8-22.9c2.9-1.9,5.8-3.7,9.3-1.8c3.8,2,3.9,5.6,3.7,9.2
	c-1.4,23.4-2.9,46.9-4.2,70.3c-0.2,4.1-2,3.8-4.7,2.1c-6.5-3.9-13.1-7.7-19.5-11.8c-3-1.9-4.4-2.1-6.4,1.4
	c-5.6,9.4-12.5,17.9-20.8,25.3c-22.1,20-52,14.6-65.9-11.8c-6.6-12.6-9.1-26.3-10.6-40.2c-1.5-13.8-0.4-27.5-0.3-41.3
	c0.5-37.3,0.2-74.6,0.1-111.9c0-12.9-6.3-22.5-17.1-26.8c-10.7-4.3-21.7-1.9-30,6.9C99.1,37.3,97,44.1,97,51.7c0,49,0,97.9,0,146.9
	c0,4.1-0.1,8.2-3.9,10.9c-3.7,2.7-7.8,3.3-12,1.3c-4.2-2.1-6.2-5.5-6.1-10.3c0.1-19.1,0-38.2,0-57.3c0-30.6,0.1-61.2,0-91.7
	c0-9.3-3.3-17.4-10.9-23.1c-8.9-6.6-18.6-7.6-28.5-2.7c-10.1,5.1-14.9,13.9-15,25c-0.2,21-0.1,42.1-0.1,63.1c0,28.5,0,56.9,0,85.4
	c0,8.8-5.5,13.7-13.3,12.3c-5.2-1-8.1-4.1-8.6-9.3c-0.2-2.1-0.1-4.2-0.1-6.4c0-43.7,0-87.3,0-131c0-4.9-0.3-9.9-1.1-14.8
	c-2-12.4-10.6-19.9-24.2-21.2c-5.1-0.5-9.2-2.4-11-7.6c-1.7-4.9-0.3-9.1,3.5-12.4c3-2.7,6.7-2.9,10.5-2.5
	c10.3,1.2,19.6,4.9,27.5,11.5c2.8,2.4,4.3,2.6,6.7-0.4C28.1-3.9,62.9-5.6,82.6,14.9c3.9,4.1,5.7,0.9,8-1.2
	C115.4-9,154.3-1.6,168.9,28.6c3.2,6.6,4.6,13.7,4.6,21C173.4,74.1,173.4,98.4,173.4,122.8z"/>
<linearGradient id="SVGID_2_" gradientUnits="userSpaceOnUse" x1="307.7516" y1="135.2509" x2="65.3099" y2="135.2509">
	<stop  offset="1.331947e-07" style="stop-color:#000000"/>
	<stop  offset="1" style="stop-color:#FFF18F"/>
</linearGradient>
<path class="st1" d="M43.3,126.3c9.6,0,19.1-0.1,28.7,0.1c4.1,0.1,5.6-0.8,5.1-5.5C73.5,88.5,60.8,59.8,43.1,33
	c-2.4-3.7-5-7.2-7.5-10.9c-4.3-6.4-3.3-14,2.5-18.4c5.8-4.4,14-3.1,18.7,3.2c24.4,33,41.3,69.1,45.8,110.3c1,9.1,1.1,9.1,10.3,9.1
	c10.1,0,20.3-0.1,30.4,0.1c3.8,0.1,5.3-1,5.7-5.1c3.9-43.1,21.4-80.9,46.8-115.3c4-5.4,12.4-6.4,18.1-2.4c5.9,4.1,7.3,12.1,2.9,18.3
	c-7.3,10.3-14.2,20.8-20.2,31.9c-11.3,20.9-18.6,43.1-21.6,66.7c-0.6,4.8,1.1,6,5.6,5.9c16.2-0.2,32.5-0.1,48.7,0
	c9.4,0,14.6,4.8,14.5,13.1c-0.1,7.6-5.9,12.7-14.6,12.8c-16.2,0.1-32.5,0.1-48.7,0c-4.1,0-5.6,0.7-5,5.5
	c4.5,33.3,17.7,62.6,39.1,88.4c6.2,7.4,6.2,15,0,20.2c-6,5-14,3.7-20-3.5c-24.5-29.8-39.6-63.7-44.6-102c-1.1-8.6-1.1-8.7-9.8-8.6
	c-10.3,0-20.6,0.2-31,0c-4.4-0.1-6.1,1.7-6.6,5.9c-4.1,37-18.2,70-40.5,99.6c-2.1,2.7-4.4,5.3-6.8,7.7c-5.1,4.9-12.9,5.3-17.7,1.1
	c-5.4-4.8-6.3-12.8-1.3-18.5c9.2-10.8,17.3-22.4,23.6-35.1c8.5-17.2,14.5-35.3,16.9-54.4c0.6-4.8-0.4-6.3-5.4-6.2
	c-17.8,0.3-35.5,0.1-53.3,0.1c-3.1,0-6.1,0.1-9-1.3c-5.4-2.5-8.6-8.4-7.4-14.1c1.3-6.2,5.6-10.3,11.9-10.4
	C23.4,126.2,33.3,126.4,43.3,126.3C43.3,126.3,43.3,126.3,43.3,126.3z"/>
</svg>
