<svg id="Слой_1" data-name="Слой 1" xmlns="http://www.w3.org/2000/svg" viewBox="0 0 330.89 329.8"><defs><style>.cls-1{fill:#00afcf;}.cls-2,.cls-3,.cls-4,.cls-5{fill:none;stroke-linecap:round;stroke-miterlimit:10;}.cls-2,.cls-3,.cls-5{stroke:#fff291;}.cls-2{stroke-width:6px;}.cls-3,.cls-4{stroke-width:7px;}.cls-4{stroke:#ea5398;}.cls-5{stroke-width:5px;}</style></defs><title>ryby_stars</title><path class="cls-1" d="M126.19,19.55a2.61,2.61,0,0,0,1.47.07A2.56,2.56,0,0,0,129.43,18a2.45,2.45,0,0,0,.07-1.47,2.55,2.55,0,0,0-1.62-1.78,2.46,2.46,0,0,0-1.45-.07,2.54,2.54,0,0,0-1.85,3.08A2.5,2.5,0,0,0,126.19,19.55Z" transform="translate(-0.28 -0.73)"/><path class="cls-1" d="M102.24,25.57a2.41,2.41,0,0,0,1.46.07,2.54,2.54,0,0,0,.24-4.85,2.68,2.68,0,0,0-1.49-.08,2.56,2.56,0,0,0-1.83,3.09A2.52,2.52,0,0,0,102.24,25.57Z" transform="translate(-0.28 -0.73)"/><path class="cls-1" d="M118.21,21.55a2.42,2.42,0,0,0,1.46.08,2.54,2.54,0,0,0,.22-4.86,2.46,2.46,0,0,0-1.45-.07,2.55,2.55,0,0,0-1.85,3.08A2.52,2.52,0,0,0,118.21,21.55Z" transform="translate(-0.28 -0.73)"/><path class="cls-1" d="M110.22,23.56a2.52,2.52,0,0,0,1.47.08A2.56,2.56,0,0,0,113.46,22a2.41,2.41,0,0,0,.07-1.46,2.54,2.54,0,0,0-1.61-1.78,2.58,2.58,0,0,0-1.46-.07,2.54,2.54,0,0,0-.24,4.85Z" transform="translate(-0.28 -0.73)"/><path class="cls-1" d="M134.18,17.54A2.54,2.54,0,0,0,137.42,16a2.62,2.62,0,0,0,.07-1.47,2.58,2.58,0,0,0-1.63-1.78,2.49,2.49,0,0,0-1.46-.07,2.54,2.54,0,0,0-.22,4.86Z" transform="translate(-0.28 -0.73)"/><path class="cls-1" d="M94.25,27.58a2.49,2.49,0,0,0,1.46.07,2.51,2.51,0,0,0,1.76-1.6,2.65,2.65,0,0,0,.08-1.48,2.55,2.55,0,0,0-1.62-1.78,2.58,2.58,0,0,0-1.46-.07,2.53,2.53,0,0,0-1.83,3.08A2.5,2.5,0,0,0,94.25,27.58Z" transform="translate(-0.28 -0.73)"/><path class="cls-1" d="M163,43.61a2.54,2.54,0,0,0,1.84,0,2.53,2.53,0,0,0,1.33-3.33,2.53,2.53,0,1,0-4.65,2A2.46,2.46,0,0,0,163,43.61Z" transform="translate(-0.28 -0.73)"/><path class="cls-1" d="M159.77,36.1a2.57,2.57,0,0,0,1.85-.06A2.47,2.47,0,0,0,163,34.56a2.53,2.53,0,0,0-1.54-3.24,2.48,2.48,0,0,0-1.85.06,2.51,2.51,0,0,0-1.32,3.31A2.46,2.46,0,0,0,159.77,36.1Z" transform="translate(-0.28 -0.73)"/><path class="cls-1" d="M169.39,58.68a2.65,2.65,0,0,0,1.86-.06,2.55,2.55,0,0,0-.15-4.74,2.55,2.55,0,0,0-1.71,4.8Z" transform="translate(-0.28 -0.73)"/><path class="cls-1" d="M166.2,51.15a2.5,2.5,0,0,0,1.84-.07,2.51,2.51,0,0,0,1.34-3.33,2.54,2.54,0,0,0-3.33-1.32,2.53,2.53,0,0,0-1.35,3.32A2.58,2.58,0,0,0,166.2,51.15Z" transform="translate(-0.28 -0.73)"/><path class="cls-1" d="M172.61,66.19a2.47,2.47,0,0,0,1.85-.06,2.52,2.52,0,0,0-.13-4.71,2.54,2.54,0,1,0-1.72,4.77Z" transform="translate(-0.28 -0.73)"/><path class="cls-1" d="M125.43,94.5a2.49,2.49,0,0,0-1.62,0A2.56,2.56,0,1,0,127,96.12,2.51,2.51,0,0,0,125.43,94.5Z" transform="translate(-0.28 -0.73)"/><path class="cls-1" d="M171.71,80.24a2.06,2.06,0,0,1-1-1h0a2.56,2.56,0,0,0-1.09,3,2.52,2.52,0,0,0,1.57,1.6,2.49,2.49,0,0,0,1.62,0,2.52,2.52,0,0,0,1.62-1.56,2.75,2.75,0,0,0,.14-.8Z" transform="translate(-0.28 -0.73)"/><path class="cls-1" d="M133.34,91.93a2.46,2.46,0,0,0-1.63,0,2.54,2.54,0,0,0,1.57,4.83,2.59,2.59,0,0,0,1.61-1.57,2.56,2.56,0,0,0-1.55-3.24Z" transform="translate(-0.28 -0.73)"/><path class="cls-1" d="M166.5,83.23a2.54,2.54,0,1,0-3.26,3.17,2.51,2.51,0,0,0,3.24-1.54A2.52,2.52,0,0,0,166.5,83.23Z" transform="translate(-0.28 -0.73)"/><path class="cls-1" d="M141.18,94.16a2.57,2.57,0,0,0,1.6-1.57,2.54,2.54,0,1,0-4.8,0,2.49,2.49,0,0,0,1.56,1.59A2.55,2.55,0,0,0,141.18,94.16Z" transform="translate(-0.28 -0.73)"/><path class="cls-1" d="M149.08,91.58a2.57,2.57,0,0,0,1.6-1.57,2.49,2.49,0,0,0,0-1.62,2.59,2.59,0,0,0-1.56-1.62,2.49,2.49,0,0,0-1.64,0,2.52,2.52,0,0,0-.06,4.78A2.55,2.55,0,0,0,149.08,91.58Z" transform="translate(-0.28 -0.73)"/><path class="cls-1" d="M158.58,87.43a2.49,2.49,0,0,0,0-1.62A2.55,2.55,0,0,0,157,84.19a2.46,2.46,0,0,0-1.63,0,2.54,2.54,0,1,0,3.19,3.26Z" transform="translate(-0.28 -0.73)"/><path class="cls-1" d="M87,65.09a2.56,2.56,0,0,0,2-.14,2.68,2.68,0,0,0,1.22-1.4,2.54,2.54,0,0,0-.16-2,2.6,2.6,0,0,0-1.4-1.22,2.55,2.55,0,0,0-3.09,3.59A2.62,2.62,0,0,0,87,65.09Z" transform="translate(-0.28 -0.73)"/><path class="cls-1" d="M95.39,80.84a2.59,2.59,0,0,0,2-.15,2.55,2.55,0,0,0,1-3.44A2.64,2.64,0,0,0,97.09,76a2.57,2.57,0,0,0-2,.16,2.54,2.54,0,0,0-1,3.43A2.4,2.4,0,0,0,95.39,80.84Z" transform="translate(-0.28 -0.73)"/><path class="cls-1" d="M82.5,52.6a3.27,3.27,0,0,0-.36.25l-.82,2.87a1.77,1.77,0,0,0,.12.31,2.56,2.56,0,0,0,4.65-.34,2.58,2.58,0,0,0-.15-2,2.56,2.56,0,0,0-1.39-1.19A2.47,2.47,0,0,0,82.5,52.6Z" transform="translate(-0.28 -0.73)"/><path class="cls-1" d="M91.21,73a2.44,2.44,0,0,0,2-.15,2.55,2.55,0,0,0,1.2-1.39,2.49,2.49,0,0,0-.16-2,2.53,2.53,0,0,0-4.47,2.39A2.49,2.49,0,0,0,91.21,73Z" transform="translate(-0.28 -0.73)"/><path class="cls-1" d="M60.72,183.26a2.49,2.49,0,0,0-.79-3.49,2.34,2.34,0,0,0-.5-.25,2.55,2.55,0,0,0-2.21,4.55,2.94,2.94,0,0,0,.51.23A2.52,2.52,0,0,0,60.72,183.26Z" transform="translate(-0.28 -0.73)"/><path class="cls-1" d="M36.6,215.8a2.55,2.55,0,0,0-2.19,4.56,2.22,2.22,0,0,0,.49.24,2.54,2.54,0,0,0,3-1,2.53,2.53,0,0,0-.79-3.52A4.81,4.81,0,0,0,36.6,215.8Z" transform="translate(-0.28 -0.73)"/><path class="cls-1" d="M51.59,197.77a2.76,2.76,0,0,0,.25-.48,2.57,2.57,0,0,0-1-3,3.44,3.44,0,0,0-.51-.25,2.54,2.54,0,0,0-2.21,4.55,2,2,0,0,0,.51.25A2.51,2.51,0,0,0,51.59,197.77Z" transform="translate(-0.28 -0.73)"/><path class="cls-1" d="M56.16,190.53a2.52,2.52,0,0,0-.8-3.52,3.89,3.89,0,0,0-.5-.25,2.55,2.55,0,0,0-2.19,4.56,2.22,2.22,0,0,0,.49.24A2.55,2.55,0,0,0,56.16,190.53Z" transform="translate(-0.28 -0.73)"/><path class="cls-1" d="M42.46,212.3a2.6,2.6,0,0,0,.25-.5,2.52,2.52,0,0,0-1-3,2.34,2.34,0,0,0-.5-.25A2.55,2.55,0,0,0,39,213.11a3.82,3.82,0,0,0,.51.23A2.51,2.51,0,0,0,42.46,212.3Z" transform="translate(-0.28 -0.73)"/><path class="cls-1" d="M69.85,168.75a3.33,3.33,0,0,0,.25-.5,2.56,2.56,0,0,0-1-3,3.44,3.44,0,0,0-.51-.25,2.55,2.55,0,0,0-2.21,4.55,2,2,0,0,0,.51.25A2.53,2.53,0,0,0,69.85,168.75Z" transform="translate(-0.28 -0.73)"/><path class="cls-1" d="M87.33,136.2a3.44,3.44,0,0,0-.51-.25,2.54,2.54,0,0,0-2.19,4.55,2.27,2.27,0,0,0,.49.25,2.53,2.53,0,0,0,3-1,2.08,2.08,0,0,0,.25-.52A2.54,2.54,0,0,0,87.33,136.2Z" transform="translate(-0.28 -0.73)"/><path class="cls-1" d="M82.75,143.46a3.33,3.33,0,0,0-.5-.25,2.54,2.54,0,0,0-2.2,4.55,2.45,2.45,0,0,0,.51.26,2.55,2.55,0,0,0,3-1.06,2.6,2.6,0,0,0,.25-.5A2.53,2.53,0,0,0,82.75,143.46Z" transform="translate(-0.28 -0.73)"/><path class="cls-1" d="M47,205a3.4,3.4,0,0,0,.26-.5,2.55,2.55,0,0,0-1.06-3,3.33,3.33,0,0,0-.5-.25A2.54,2.54,0,1,0,47,205Z" transform="translate(-0.28 -0.73)"/><path class="cls-1" d="M88.38,129.75a2.52,2.52,0,0,0,.81,3.49,2,2,0,0,0,.5.25,2.54,2.54,0,0,0,3-1,3.33,3.33,0,0,0,.25-.5,2.55,2.55,0,0,0-1.05-3,3.15,3.15,0,0,0-.49-.24A2.55,2.55,0,0,0,88.38,129.75Z" transform="translate(-0.28 -0.73)"/><path class="cls-1" d="M65.29,176a2.6,2.6,0,0,0,.25-.5,2.53,2.53,0,0,0-1.05-3,3.33,3.33,0,0,0-.5-.25,2.54,2.54,0,1,0,1.3,3.75Z" transform="translate(-0.28 -0.73)"/><path class="cls-1" d="M79,154.23a4.81,4.81,0,0,0,.25-.51,2.53,2.53,0,0,0-1.06-3,3.33,3.33,0,0,0-.5-.25A2.55,2.55,0,0,0,75.48,155a2.94,2.94,0,0,0,.51.23A2.56,2.56,0,0,0,79,154.23Z" transform="translate(-0.28 -0.73)"/><path class="cls-1" d="M93.74,126a3.82,3.82,0,0,0,.51.23,2.54,2.54,0,0,0,3-1,3.5,3.5,0,0,0,.26-.51,2.54,2.54,0,0,0-1.06-3,2.6,2.6,0,0,0-.5-.25A2.55,2.55,0,0,0,93.74,126Z" transform="translate(-0.28 -0.73)"/><path class="cls-1" d="M74.42,161.49a2.6,2.6,0,0,0,.25-.5,2.55,2.55,0,0,0-1-3,3.44,3.44,0,0,0-.51-.25,2.53,2.53,0,0,0-2.18,4.54,2.6,2.6,0,0,0,.5.25A2.56,2.56,0,0,0,74.42,161.49Z" transform="translate(-0.28 -0.73)"/><path class="cls-1" d="M48.29,236.6a2.77,2.77,0,0,0-.95-.14,2.54,2.54,0,0,0-.75,4.94,2.63,2.63,0,0,0,.95.14,2.55,2.55,0,0,0,.75-4.94Z" transform="translate(-0.28 -0.73)"/><path class="cls-1" d="M65.19,236a2.65,2.65,0,0,0-.94-.15,2.51,2.51,0,0,0-2.42,2.63,2.54,2.54,0,0,0,1.67,2.31,3.06,3.06,0,0,0,1,.14,2.52,2.52,0,0,0,2.28-1.69,2.46,2.46,0,0,0,.15-.95A2.54,2.54,0,0,0,65.19,236Z" transform="translate(-0.28 -0.73)"/><path class="cls-1" d="M56.74,236.28a2.65,2.65,0,0,0-.94-.15,2.54,2.54,0,0,0-2.44,2.63,2.56,2.56,0,0,0,1.69,2.31,2.68,2.68,0,0,0,.94.14,2.54,2.54,0,0,0,.75-4.93Z" transform="translate(-0.28 -0.73)"/><path class="cls-1" d="M73.67,235.62a2.76,2.76,0,0,0-1-.14,2.54,2.54,0,0,0-.74,4.93,2.26,2.26,0,0,0,.94.13,2.52,2.52,0,0,0,2.44-2.63A2.51,2.51,0,0,0,73.67,235.62Z" transform="translate(-0.28 -0.73)"/><path class="cls-1" d="M82.13,235.29a2.67,2.67,0,0,0-.95-.14,2.53,2.53,0,0,0-.76,4.92,2.18,2.18,0,0,0,1,.14,2.52,2.52,0,0,0,2.3-1.7,2.56,2.56,0,0,0,.15-.93A2.52,2.52,0,0,0,82.13,235.29Z" transform="translate(-0.28 -0.73)"/><path class="cls-1" d="M157,239.8l-.15-.05a2.54,2.54,0,0,0-1.87,4.72l.16.06a2.54,2.54,0,0,0,3.18-1.39l0-.14A2.55,2.55,0,0,0,157,239.8Z" transform="translate(-0.28 -0.73)"/><path class="cls-1" d="M172.58,246.53l-.18-.06a2.53,2.53,0,0,0-1.83,4.71.69.69,0,0,0,.15.07,2.53,2.53,0,0,0,3.18-1.38l.06-.14A2.54,2.54,0,0,0,172.58,246.53Z" transform="translate(-0.28 -0.73)"/><path class="cls-1" d="M164.81,243.18l-.17-.07a2.53,2.53,0,0,0-1.84,4.72l.16.06a2.54,2.54,0,0,0,3.17-1.39l.06-.18A2.51,2.51,0,0,0,164.81,243.18Z" transform="translate(-0.28 -0.73)"/><path class="cls-1" d="M149.27,236.45l-.18-.06a2.53,2.53,0,0,0-1.83,4.71.41.41,0,0,0,.15.07,2.55,2.55,0,0,0,3.18-1.38l0-.14A2.55,2.55,0,0,0,149.27,236.45Z" transform="translate(-0.28 -0.73)"/><path class="cls-1" d="M188.12,253.26l-.17-.06a2.53,2.53,0,0,0-1.84,4.71l.16.06a2.54,2.54,0,0,0,3.17-1.39l.06-.17A2.52,2.52,0,0,0,188.12,253.26Z" transform="translate(-0.28 -0.73)"/><path class="cls-1" d="M195.89,256.61l-.18-.06a2.53,2.53,0,0,0-1.83,4.72.69.69,0,0,0,.15.07,2.57,2.57,0,0,0,3.19-1.4l.05-.14A2.54,2.54,0,0,0,195.89,256.61Z" transform="translate(-0.28 -0.73)"/><path class="cls-1" d="M180.35,249.88l-.15,0a2.54,2.54,0,0,0-1.87,4.72l.17.06a2.52,2.52,0,0,0,3.17-1.38l.05-.15A2.55,2.55,0,0,0,180.35,249.88Z" transform="translate(-0.28 -0.73)"/><path class="cls-1" d="M141.5,233.09l-.17-.06a2.53,2.53,0,0,0-1.84,4.72l.16.05a2.52,2.52,0,0,0,3.17-1.38l.06-.18A2.54,2.54,0,0,0,141.5,233.09Z" transform="translate(-0.28 -0.73)"/><path class="cls-1" d="M116,234a2.68,2.68,0,0,0-.94-.13,2.54,2.54,0,1,0,2.47,3.39,2.76,2.76,0,0,0,.14-1A2.53,2.53,0,0,0,116,234Z" transform="translate(-0.28 -0.73)"/><path class="cls-1" d="M132.88,233.31a2.65,2.65,0,0,0-.94-.15,2.54,2.54,0,0,0-.76,4.94,2.77,2.77,0,0,0,.95.14,2.53,2.53,0,0,0,2.29-1.7,2.43,2.43,0,0,0,.16-.93A2.56,2.56,0,0,0,132.88,233.31Z" transform="translate(-0.28 -0.73)"/><path class="cls-1" d="M99.05,234.63a2.55,2.55,0,0,0-1-.14,2.53,2.53,0,0,0-.75,4.92,2.48,2.48,0,0,0,1,.14,2.54,2.54,0,0,0,2.28-1.68,2.65,2.65,0,0,0,.14-.94A2.55,2.55,0,0,0,99.05,234.63Z" transform="translate(-0.28 -0.73)"/><path class="cls-1" d="M90.59,235a2.76,2.76,0,0,0-1-.14,2.53,2.53,0,0,0-.74,4.92,2.18,2.18,0,0,0,1,.14,2.5,2.5,0,0,0,2.29-1.68,2.76,2.76,0,0,0,.14-1A2.5,2.5,0,0,0,90.59,235Z" transform="translate(-0.28 -0.73)"/><path class="cls-1" d="M107.52,234.3a2.6,2.6,0,0,0-1-.14,2.53,2.53,0,0,0-.76,4.92,2.74,2.74,0,0,0,1,.15,2.54,2.54,0,0,0,2.3-1.67,2.6,2.6,0,0,0,.14-1A2.52,2.52,0,0,0,107.52,234.3Z" transform="translate(-0.28 -0.73)"/><path class="cls-1" d="M124.41,233.64a2.63,2.63,0,0,0-.93-.15,2.55,2.55,0,0,0-.75,4.94,2.61,2.61,0,0,0,.94.14,2.54,2.54,0,0,0,.74-4.93Z" transform="translate(-0.28 -0.73)"/><path class="cls-1" d="M225.64,261a2.6,2.6,0,0,0,1.88-.07,2.58,2.58,0,0,0,1.31-3.34,2.54,2.54,0,0,0-4.66,2A2.63,2.63,0,0,0,225.64,261Z" transform="translate(-0.28 -0.73)"/><path class="cls-1" d="M253,248.89a2.55,2.55,0,0,0-.07-1.88,2.51,2.51,0,0,0-1.48-1.38,2.54,2.54,0,0,0-3.16,3.42,2.51,2.51,0,0,0,1.48,1.36,2.43,2.43,0,0,0,1.87-.07A2.48,2.48,0,0,0,253,248.89Z" transform="translate(-0.28 -0.73)"/><path class="cls-1" d="M245,252.41a2.53,2.53,0,1,0-3.24,1.54,2.6,2.6,0,0,0,1.88-.07A2.57,2.57,0,0,0,245,252.41Z" transform="translate(-0.28 -0.73)"/><path class="cls-1" d="M235.55,257.41a2.54,2.54,0,0,0,1.3-3.35,2.43,2.43,0,0,0-1.47-1.36,2.51,2.51,0,0,0-3.16,3.4,2.43,2.43,0,0,0,1.47,1.36A2.55,2.55,0,0,0,235.55,257.41Z" transform="translate(-0.28 -0.73)"/><path class="cls-1" d="M261,243.48a2.61,2.61,0,0,0-1.48-1.37,2.5,2.5,0,0,0-1.86.06,2.53,2.53,0,0,0-1.31,3.35,2.51,2.51,0,0,0,3.34,1.3,2.54,2.54,0,0,0,1.31-3.34Z" transform="translate(-0.28 -0.73)"/><path class="cls-1" d="M300.14,260.74a2.54,2.54,0,0,0-3,3.65,2.47,2.47,0,0,0,1.35,1.14,2.44,2.44,0,0,0,2.1-.19,2.47,2.47,0,0,0,1.14-1.35,2.51,2.51,0,0,0-.19-2.1A2.58,2.58,0,0,0,300.14,260.74Z" transform="translate(-0.28 -0.73)"/><path class="cls-1" d="M304.27,268.05a2.55,2.55,0,0,0-2.08.19,2.54,2.54,0,0,0,.4,4.6,2.53,2.53,0,0,0,3.05-3.64A2.56,2.56,0,0,0,304.27,268.05Z" transform="translate(-0.28 -0.73)"/><path class="cls-1" d="M308.42,275.36a2.57,2.57,0,0,0-2.11.18,2.53,2.53,0,0,0-.94,3.46,2.47,2.47,0,0,0,1.35,1.14,2.44,2.44,0,0,0,2.1-.19A2.39,2.39,0,0,0,310,278.6a2.51,2.51,0,0,0-.19-2.1A2.47,2.47,0,0,0,308.42,275.36Z" transform="translate(-0.28 -0.73)"/><path class="cls-1" d="M309.75,294.2,307.16,293l-.06,0a2.53,2.53,0,0,0,.08,4.75,2.46,2.46,0,0,0,1.77,0,2.53,2.53,0,0,0,1.47-1.5,2.44,2.44,0,0,0,0-1.58A2,2,0,0,0,309.75,294.2Z" transform="translate(-0.28 -0.73)"/><path class="cls-1" d="M277.6,305.25a2.46,2.46,0,0,0-1.77,0,2.53,2.53,0,0,0,.07,4.75,2.53,2.53,0,0,0,3.21-3.31A2.54,2.54,0,0,0,277.6,305.25Z" transform="translate(-0.28 -0.73)"/><path class="cls-1" d="M285.42,302.19a2.46,2.46,0,0,0-1.77,0,2.52,2.52,0,0,0-1.45,3.27,2.54,2.54,0,0,0,3.29,1.44,2.52,2.52,0,0,0,1.47-1.51,2.46,2.46,0,0,0,0-1.77A2.53,2.53,0,0,0,285.42,302.19Z" transform="translate(-0.28 -0.73)"/><path class="cls-1" d="M293.24,299.14a2.46,2.46,0,0,0-1.77,0,2.53,2.53,0,0,0,.07,4.75,2.46,2.46,0,0,0,1.77,0,2.5,2.5,0,0,0,1.47-1.5,2.57,2.57,0,0,0-1.54-3.24Z" transform="translate(-0.28 -0.73)"/><path class="cls-1" d="M301.06,296.08a2.49,2.49,0,0,0-1.78,0,2.52,2.52,0,0,0,.08,4.74,2.46,2.46,0,0,0,1.77,0,2.55,2.55,0,0,0,1.47-1.51,2.46,2.46,0,0,0,0-1.77A2.53,2.53,0,0,0,301.06,296.08Z" transform="translate(-0.28 -0.73)"/><path class="cls-1" d="M228.45,283.21a2.58,2.58,0,0,0-1.1-.76,2.61,2.61,0,0,0-2.49.44,2.54,2.54,0,0,0-.3,3.57,2.57,2.57,0,0,0,1.09.77,2.51,2.51,0,0,0,2.48-.45,2.46,2.46,0,0,0,.76-1.09A2.56,2.56,0,0,0,228.45,283.21Z" transform="translate(-0.28 -0.73)"/><path class="cls-1" d="M223.09,276.82a2.51,2.51,0,0,0-3.57-.32,3.06,3.06,0,0,0-.46.5l-.29,2.11a.4.4,0,0,1,0,.15,3.25,3.25,0,0,0,.46.81,2.6,2.6,0,0,0,1.1.77,2.52,2.52,0,0,0,2.47-.45,2.51,2.51,0,0,0,.32-3.57Z" transform="translate(-0.28 -0.73)"/><path class="cls-1" d="M233.8,289.61a2.53,2.53,0,1,0-3.88,3.25,2.46,2.46,0,0,0,1.09.76,2.52,2.52,0,0,0,2.48-.45,2.41,2.41,0,0,0,.76-1.09A2.54,2.54,0,0,0,233.8,289.61Z" transform="translate(-0.28 -0.73)"/><path class="cls-1" d="M239.16,296a2.51,2.51,0,0,0-3.57-.32,2.53,2.53,0,1,0,3.25,3.89,2.6,2.6,0,0,0,.77-1.1A2.54,2.54,0,0,0,239.16,296Z" transform="translate(-0.28 -0.73)"/><line class="cls-2" x1="252.89" y1="298" x2="253.65" y2="326.8"/><line class="cls-2" x1="238.87" y1="312.78" x2="267.67" y2="312.02"/><line class="cls-3" x1="17.4" y1="217.19" x2="25.99" y2="253.58"/><line class="cls-3" x1="3.5" y1="239.68" x2="39.88" y2="231.09"/><line class="cls-4" x1="105.24" y1="86.46" x2="100.52" y2="114.45"/><line class="cls-4" x1="88.88" y1="98.1" x2="116.88" y2="102.81"/><line class="cls-4" x1="285.88" y1="231.5" x2="283.03" y2="261.95"/><line class="cls-4" x1="269.23" y1="245.3" x2="299.68" y2="248.15"/><line class="cls-4" x1="143.91" y1="3.51" x2="163.98" y2="23.57"/><line class="cls-4" x1="143.91" y1="23.58" x2="163.98" y2="3.5"/><line class="cls-2" x1="63.73" y1="26.95" x2="86.61" y2="38.21"/><line class="cls-2" x1="69.54" y1="44.02" x2="80.8" y2="21.14"/><line class="cls-5" x1="185.92" y1="64.07" x2="181.23" y2="82.02"/><line class="cls-5" x1="174.6" y1="70.7" x2="192.55" y2="75.39"/><line class="cls-5" x1="213.75" y1="254.39" x2="208.58" y2="274.18"/><line class="cls-5" x1="201.27" y1="261.7" x2="221.06" y2="266.87"/><line class="cls-5" x1="316.68" y1="275.28" x2="319.89" y2="295.48"/><line class="cls-5" x1="308.19" y1="286.99" x2="328.39" y2="283.78"/></svg>