<?xml version="1.0" encoding="utf-8"?>
<!-- Generator: Adobe Illustrator 23.1.0, SVG Export Plug-In . SVG Version: 6.00 Build 0)  -->
<svg version="1.1" id="Слой_1" xmlns="http://www.w3.org/2000/svg" xmlns:xlink="http://www.w3.org/1999/xlink" x="0px" y="0px"
	 viewBox="0 0 169 53" style="enable-background:new 0 0 169 53;" xml:space="preserve">
<style type="text/css">
	.st0{fill:#FFFFFF;}
</style>
<g>
	<g>
		<path class="st0" d="M1.15,1.13h34.48v31.3H12.69v20.5H1.15V1.13z M24.16,20.97V12.6H12.69v8.36H24.16z M24.16,20.89v0.07H12.69
			v-0.07H24.16z M12.69,32.44h14.95H12.69z"/>
		<path class="st0" d="M78.63,52.93H67.16v-33.6L55.61,33.25v19.68H44.14V1.13h11.47v13.99L67.16,1.13h11.47V52.93z"/>
		<path class="st0" d="M105.56,17.56c2.42,0,4.71,0.47,6.88,1.41c2.17,0.94,4.04,2.2,5.62,3.77c1.58,1.58,2.84,3.45,3.77,5.62
			c0.94,2.17,1.41,4.47,1.41,6.88c0,2.47-0.47,4.77-1.41,6.92c-0.94,2.15-2.2,4.01-3.77,5.59c-1.58,1.58-3.45,2.84-5.62,3.77
			c-2.17,0.94-4.47,1.41-6.88,1.41c-2.47,0-4.77-0.47-6.92-1.41c-2.15-0.94-4.01-2.19-5.59-3.77c-1.58-1.58-2.84-3.44-3.77-5.59
			c-0.94-2.15-1.41-4.45-1.41-6.92V1.13h34.04V12.6H99.35v6.07C101.27,17.93,103.34,17.56,105.56,17.56z M105.56,41.46
			c1.73,0,3.19-0.6,4.4-1.81c1.21-1.21,1.81-2.68,1.81-4.4s-0.61-3.19-1.81-4.4c-1.21-1.21-2.68-1.81-4.4-1.81s-3.19,0.61-4.4,1.81
			c-1.21,1.21-1.81,2.68-1.81,4.4s0.6,3.19,1.81,4.4C102.37,40.86,103.84,41.46,105.56,41.46z"/>
		<path class="st0" d="M167.57,52.93H156.1v-33.6l-11.54,13.91v19.68h-11.47V1.13h11.47v13.99L156.1,1.13h11.47V52.93z"/>
	</g>
</g>
</svg>
