<?xml version="1.0" encoding="utf-8"?>
<!-- Generator: Adobe Illustrator 23.1.0, SVG Export Plug-In . SVG Version: 6.00 Build 0)  -->
<svg version="1.1" id="Слой_1" xmlns="http://www.w3.org/2000/svg" xmlns:xlink="http://www.w3.org/1999/xlink" x="0px" y="0px"
	 viewBox="0 0 322 269" style="enable-background:new 0 0 322 269;" xml:space="preserve">
<style type="text/css">
	.st0{fill:url(#SVGID_1_);}
</style>
<linearGradient id="SVGID_1_" gradientUnits="userSpaceOnUse" x1="63.8846" y1="134.7178" x2="385.8846" y2="134.7178">
	<stop  offset="0.0326" style="stop-color:#00F5FF"/>
	<stop  offset="1" style="stop-color:#000000"/>
</linearGradient>
<path class="st0" d="M211.73,122.83c0,24.57-0.15,49.14,0.07,73.7c0.1,11.53,2.15,22.84,6.31,33.67c0.94,2.46,2.14,4.88,3.61,7.06
	c7.24,10.69,16.86,12.26,27.23,4.64c8-5.88,13.58-13.8,18.9-21.97c1.92-2.95,1.07-4.68-1.85-6.3c-4.63-2.56-9.03-5.55-13.62-8.19
	c-2.96-1.7-2.84-3.09-0.14-4.9c7.63-5.12,15.19-10.33,22.8-15.47c11.27-7.63,22.56-15.22,33.82-22.86c2.87-1.95,5.8-3.67,9.31-1.82
	c3.75,1.98,3.91,5.57,3.69,9.22c-1.41,23.44-2.86,46.88-4.21,70.32c-0.24,4.14-2,3.76-4.71,2.11c-6.49-3.95-13.12-7.67-19.49-11.81
	c-2.97-1.93-4.38-2.07-6.44,1.36c-5.65,9.42-12.52,17.89-20.75,25.31c-22.12,19.96-52.04,14.63-65.85-11.82
	c-6.59-12.62-9.11-26.27-10.6-40.21c-1.47-13.75-0.44-27.49-0.25-41.26c0.52-37.29,0.22-74.59,0.13-111.88
	c-0.03-12.89-6.33-22.55-17.09-26.84c-10.74-4.28-21.68-1.92-30,6.87c-5.2,5.5-7.27,12.33-7.27,19.89
	c0.03,48.96,0.01,97.92,0.03,146.88c0,4.13-0.11,8.21-3.87,10.95c-3.72,2.7-7.83,3.34-12,1.28c-4.15-2.05-6.16-5.47-6.13-10.27
	c0.09-19.09,0.03-38.18,0.03-57.27c0-30.58,0.06-61.16-0.04-91.73c-0.03-9.3-3.26-17.36-10.92-23.07
	c-8.88-6.61-18.64-7.6-28.46-2.66C63.91,30.85,59.09,39.66,59.01,50.8c-0.16,21.03-0.07,42.07-0.07,63.1
	c0,28.46,0.03,56.91-0.01,85.37c-0.01,8.76-5.46,13.74-13.25,12.29c-5.19-0.97-8.08-4.1-8.57-9.33c-0.2-2.11-0.13-4.24-0.13-6.36
	c-0.01-43.66,0.03-87.31-0.05-130.97c-0.01-4.93-0.35-9.91-1.12-14.78c-1.97-12.4-10.65-19.9-24.16-21.25
	c-5.09-0.51-9.22-2.43-11.03-7.58c-1.72-4.9-0.26-9.08,3.5-12.43c3-2.68,6.7-2.91,10.5-2.48c10.27,1.18,19.56,4.86,27.45,11.53
	c2.77,2.35,4.31,2.58,6.73-0.37c17.64-21.48,52.4-23.09,72.07-2.62c3.93,4.09,5.65,0.94,8.01-1.22
	c24.78-22.71,63.75-15.33,78.34,14.89c3.19,6.62,4.57,13.66,4.55,21.04C211.68,74.05,211.73,98.44,211.73,122.83z"/>
</svg>
