<?xml version="1.0" encoding="utf-8"?>
<!-- Generator: Adobe Illustrator 23.1.0, SVG Export Plug-In . SVG Version: 6.00 Build 0)  -->
<svg version="1.1" id="Слой_1" xmlns="http://www.w3.org/2000/svg" xmlns:xlink="http://www.w3.org/1999/xlink" x="0px" y="0px"
	 viewBox="0 0 361 72" style="enable-background:new 0 0 361 72;" xml:space="preserve">
<style type="text/css">
	.st0{enable-background:new    ;}
	.st1{fill:#FFFFFF;}
</style>
<g class="st0">
	<path class="st1" d="M25.19,60.91c1.58,0,3.15-0.8,4.7-2.41c1.55-1.6,2.73-3.71,3.52-6.33h12.36c-0.54,2.96-1.44,5.71-2.7,8.25
		c-1.26,2.54-2.79,4.74-4.59,6.59c-1.8,1.85-3.84,3.31-6.1,4.37c-2.27,1.06-4.66,1.59-7.18,1.59c-2.91,0-5.65-0.7-8.21-2.11
		c-2.57-1.41-4.81-3.32-6.73-5.74c-1.92-2.42-3.44-5.24-4.55-8.47c-1.11-3.23-1.67-6.7-1.67-10.4s0.55-7.17,1.67-10.4
		c1.11-3.23,2.63-6.06,4.55-8.47c1.92-2.42,4.17-4.33,6.73-5.73c2.56-1.41,5.3-2.11,8.21-2.11c2.52,0,4.91,0.53,7.18,1.59
		c2.27,1.06,4.3,2.52,6.1,4.37c1.8,1.85,3.33,4.05,4.59,6.59c1.26,2.54,2.16,5.29,2.7,8.25H33.4c-0.79-2.61-1.96-4.71-3.52-6.29
		c-1.55-1.58-3.12-2.37-4.7-2.37c-1.09,0-2.17,0.37-3.26,1.11c-1.09,0.74-2.06,1.75-2.92,3.03c-0.86,1.28-1.57,2.82-2.11,4.63
		c-0.54,1.8-0.81,3.74-0.81,5.81s0.27,4.01,0.81,5.81c0.54,1.8,1.25,3.36,2.11,4.66c0.86,1.31,1.84,2.33,2.92,3.07
		C23.02,60.54,24.1,60.91,25.19,60.91z"/>
	<path class="st1" d="M82.46,72.97L64.85,51.58v20.5H53.38v-51.8h11.47v19.76H76.4V20.28h11.47v31.3h-7.99v0.07l11.54,13.91
		L82.46,72.97z"/>
	<path class="st1" d="M117.24,19.62c2.91,0,5.65,0.7,8.21,2.11c2.56,1.41,4.81,3.32,6.73,5.74c1.92,2.42,3.44,5.24,4.55,8.47
		c1.11,3.23,1.67,6.7,1.67,10.4s-0.56,7.17-1.67,10.4c-1.11,3.23-2.63,6.06-4.55,8.47c-1.92,2.42-4.17,4.33-6.73,5.73
		c-2.57,1.41-5.3,2.11-8.21,2.11c-2.91,0-5.65-0.7-8.21-2.11c-2.57-1.41-4.8-3.32-6.7-5.73c-1.9-2.42-3.4-5.24-4.51-8.47
		c-1.11-3.23-1.67-6.7-1.67-10.4s0.55-7.17,1.67-10.4c1.11-3.23,2.61-6.05,4.51-8.47c1.9-2.42,4.13-4.33,6.7-5.74
		C111.59,20.32,114.33,19.62,117.24,19.62z M117.24,60.91c1.08,0,2.17-0.37,3.26-1.11c1.08-0.74,2.06-1.75,2.92-3.03
		c0.86-1.28,1.57-2.82,2.11-4.63c0.54-1.8,0.81-3.74,0.81-5.81s-0.27-4.01-0.81-5.81c-0.54-1.8-1.25-3.34-2.11-4.63
		c-0.86-1.28-1.84-2.29-2.92-3.03c-1.09-0.74-2.17-1.11-3.26-1.11c-1.04,0-2.1,0.37-3.18,1.11c-1.09,0.74-2.06,1.75-2.92,3.03
		c-0.86,1.28-1.57,2.82-2.11,4.63c-0.54,1.8-0.81,3.74-0.81,5.81s0.27,4.01,0.81,5.81c0.54,1.8,1.25,3.34,2.11,4.63
		c0.86,1.28,1.84,2.29,2.92,3.03C115.15,60.54,116.21,60.91,117.24,60.91z"/>
	<path class="st1" d="M146.69,20.28h34.48v31.3h-22.94v20.5h-11.54V20.28z M169.71,40.12v-8.36h-11.47v8.36H169.71z M169.71,40.04
		v0.07h-11.47v-0.07H169.71z M158.24,51.58h14.95H158.24z"/>
	<path class="st1" d="M223.8,20.28v51.8h-11.47V31.83h-11.47v40.26h-11.54v-51.8h31.67H223.8z"/>
	<path class="st1" d="M255.99,20.28v51.8h-11.47v-33.6l-5.55,6.73l-8.95-7.4l14.5-17.54H255.99z M256.07,10.14
		c0,0.89-0.16,1.71-0.48,2.48c-0.32,0.77-0.78,1.43-1.37,2c-0.59,0.57-1.27,1.02-2.04,1.37c-0.77,0.35-1.59,0.52-2.48,0.52
		c-0.89,0-1.71-0.17-2.48-0.52c-0.77-0.34-1.44-0.8-2.04-1.37c-0.59-0.57-1.05-1.23-1.37-2c-0.32-0.76-0.48-1.59-0.48-2.48
		c0-1.78,0.62-3.29,1.85-4.55c1.23-1.26,2.74-1.89,4.51-1.89c1.78,0,3.28,0.63,4.51,1.89C255.45,6.85,256.07,8.37,256.07,10.14z"/>
	<path class="st1" d="M283.89,19.62c2.91,0,5.65,0.7,8.21,2.11c2.56,1.41,4.81,3.32,6.73,5.74c1.92,2.42,3.44,5.24,4.55,8.47
		c1.11,3.23,1.67,6.7,1.67,10.4s-0.56,7.17-1.67,10.4c-1.11,3.23-2.63,6.06-4.55,8.47c-1.92,2.42-4.17,4.33-6.73,5.73
		c-2.57,1.41-5.3,2.11-8.21,2.11c-2.91,0-5.65-0.7-8.21-2.11c-2.57-1.41-4.8-3.32-6.7-5.73c-1.9-2.42-3.4-5.24-4.51-8.47
		c-1.11-3.23-1.67-6.7-1.67-10.4s0.55-7.17,1.67-10.4c1.11-3.23,2.61-6.05,4.51-8.47c1.9-2.42,4.13-4.33,6.7-5.74
		C278.24,20.32,280.98,19.62,283.89,19.62z M283.89,60.91c1.08,0,2.17-0.37,3.26-1.11c1.08-0.74,2.06-1.75,2.92-3.03
		c0.86-1.28,1.57-2.82,2.11-4.63c0.54-1.8,0.81-3.74,0.81-5.81s-0.27-4.01-0.81-5.81c-0.54-1.8-1.25-3.34-2.11-4.63
		c-0.86-1.28-1.84-2.29-2.92-3.03c-1.09-0.74-2.17-1.11-3.26-1.11c-1.04,0-2.1,0.37-3.18,1.11c-1.08,0.74-2.06,1.75-2.92,3.03
		c-0.86,1.28-1.57,2.82-2.11,4.63c-0.54,1.8-0.81,3.74-0.81,5.81s0.27,4.01,0.81,5.81c0.54,1.8,1.25,3.34,2.11,4.63
		c0.86,1.28,1.84,2.29,2.92,3.03S282.85,60.91,283.89,60.91z"/>
	<path class="st1" d="M357.89,72.08h-11.47V51.96h-11.17v20.13H323.7v-33.6l-5.48,6.66l-8.95-7.33l14.43-17.54h11.54v20.13h11.17
		V20.28h11.47V72.08z"/>
</g>
</svg>
