<?xml version="1.0" encoding="utf-8"?>
<!-- Generator: Adobe Illustrator 23.1.0, SVG Export Plug-In . SVG Version: 6.00 Build 0)  -->
<svg version="1.1" id="Слой_1" xmlns="http://www.w3.org/2000/svg" xmlns:xlink="http://www.w3.org/1999/xlink" x="0px" y="0px"
	 viewBox="0 0 422 264" style="enable-background:new 0 0 422 264;" xml:space="preserve">
<style type="text/css">
	.st0{fill:none;stroke:#FFF18F;stroke-width:6;stroke-linecap:round;stroke-miterlimit:10;}
	.st1{fill:none;stroke:#FF499F;stroke-width:7;stroke-linecap:round;stroke-miterlimit:10;}
	.st2{fill:none;stroke:#FFF18F;stroke-width:5;stroke-linecap:round;stroke-miterlimit:10;}
	.st3{fill:#00F5FF;}
</style>
<g>
	<g>
		<line class="st0" x1="137.98" y1="199.17" x2="157.83" y2="219.1"/>
		<line class="st0" x1="137.94" y1="219.06" x2="157.88" y2="199.21"/>
	</g>
	<g>
		<line class="st1" x1="5.41" y1="179.01" x2="28.19" y2="184.79"/>
		<line class="st1" x1="13.91" y1="193.29" x2="19.69" y2="170.51"/>
	</g>
	<g>
		<line class="st1" x1="110.17" y1="144.5" x2="133.85" y2="149.9"/>
		<line class="st1" x1="119.31" y1="159.04" x2="124.71" y2="135.36"/>
	</g>
	<g>
		<line class="st2" x1="77.95" y1="108.89" x2="79.54" y2="127.37"/>
		<line class="st2" x1="69.5" y1="118.93" x2="87.99" y2="117.34"/>
	</g>
	<g>
		<line class="st2" x1="278.34" y1="93.67" x2="297.65" y2="98.08"/>
		<line class="st2" x1="285.79" y1="105.53" x2="290.2" y2="86.22"/>
	</g>
	<g>
		<line class="st1" x1="387.29" y1="61.88" x2="418.03" y2="57.8"/>
		<line class="st1" x1="404.7" y1="75.21" x2="400.62" y2="44.47"/>
	</g>
	<g>
		<line class="st0" x1="384.51" y1="105.85" x2="403.58" y2="122.78"/>
		<line class="st0" x1="385.58" y1="123.85" x2="402.51" y2="104.78"/>
	</g>
	<g>
		<line class="st0" x1="63.46" y1="243.8" x2="79.25" y2="257.83"/>
		<line class="st0" x1="64.34" y1="258.71" x2="78.37" y2="242.92"/>
	</g>
	<g>
		<line class="st0" x1="341.04" y1="5.38" x2="350.96" y2="28.87"/>
		<line class="st0" x1="334.25" y1="22.09" x2="357.74" y2="12.16"/>
	</g>
	<path class="st3" d="M72.46,127.79c-0.28-0.26-0.61-0.43-0.94-0.51c-0.74-0.18-1.57,0.05-2.12,0.66c-0.79,0.89-0.73,2.26,0.15,3.05
		c0.28,0.26,0.61,0.43,0.94,0.51c0.74,0.18,1.57-0.05,2.12-0.66c0.26-0.28,0.43-0.59,0.51-0.93
		C73.29,129.17,73.06,128.34,72.46,127.79z"/>
	<path class="st3" d="M57.55,144.2c-0.28-0.26-0.61-0.43-0.94-0.51c-0.74-0.18-1.57,0.05-2.12,0.66c-0.81,0.89-0.74,2.25,0.15,3.05
		c0.28,0.26,0.59,0.43,0.94,0.51c0.74,0.18,1.56-0.05,2.12-0.66c0.24-0.27,0.41-0.6,0.49-0.93
		C58.37,145.57,58.16,144.76,57.55,144.2z"/>
	<path class="st3" d="M62.66,141.77c0.26-0.28,0.43-0.59,0.51-0.93c0.18-0.74-0.05-1.57-0.66-2.12c-0.28-0.26-0.61-0.43-0.94-0.51
		c-0.74-0.18-1.56,0.05-2.1,0.66c-0.81,0.89-0.74,2.25,0.14,3.04c0.28,0.26,0.61,0.43,0.94,0.51
		C61.29,142.61,62.12,142.38,62.66,141.77z"/>
	<path class="st3" d="M67.62,136.32c0.26-0.28,0.43-0.61,0.51-0.94c0.18-0.74-0.05-1.57-0.64-2.11c-0.28-0.26-0.61-0.43-0.94-0.51
		c-0.74-0.18-1.57,0.05-2.12,0.66c-0.81,0.87-0.74,2.25,0.15,3.05c0.28,0.26,0.59,0.43,0.94,0.51
		C66.27,137.15,67.08,136.91,67.62,136.32z"/>
	<path class="st3" d="M29.79,174.73c0.28,0.26,0.59,0.43,0.94,0.51c0.74,0.18,1.56-0.05,2.1-0.66c0.26-0.28,0.43-0.59,0.51-0.93
		c0.18-0.74-0.05-1.57-0.66-2.12c-0.28-0.26-0.59-0.43-0.93-0.51c-0.74-0.18-1.57,0.05-2.12,0.66
		C28.83,172.57,28.9,173.94,29.79,174.73z"/>
	<path class="st3" d="M52.72,152.72c0.26-0.28,0.43-0.61,0.51-0.94c0.18-0.74-0.05-1.57-0.66-2.12c-0.28-0.26-0.59-0.43-0.93-0.51
		c-0.76-0.18-1.57,0.05-2.12,0.66c-0.81,0.87-0.74,2.25,0.14,3.04c0.28,0.26,0.61,0.43,0.94,0.51
		C51.35,153.55,52.17,153.32,52.72,152.72z"/>
	<path class="st3" d="M34.76,169.26c0.28,0.26,0.61,0.43,0.94,0.51c0.74,0.18,1.57-0.05,2.11-0.64c0.25-0.28,0.42-0.61,0.5-0.95
		c0.18-0.74-0.03-1.57-0.64-2.11c-0.28-0.26-0.61-0.43-0.94-0.51c-0.74-0.18-1.57,0.05-2.12,0.66
		C33.81,167.09,33.87,168.47,34.76,169.26z"/>
	<path class="st3" d="M42.78,163.65c0.26-0.28,0.43-0.59,0.51-0.93c0.18-0.74-0.05-1.57-0.66-2.12c-0.28-0.26-0.61-0.43-0.94-0.51
		c-0.74-0.18-1.56,0.05-2.1,0.66c-0.81,0.87-0.74,2.25,0.15,3.05c0.26,0.26,0.59,0.43,0.93,0.51
		C41.41,164.48,42.23,164.25,42.78,163.65z"/>
	<path class="st3" d="M47.61,155.13c-0.28-0.26-0.61-0.43-0.94-0.51c-0.74-0.18-1.57,0.05-2.12,0.66c-0.79,0.89-0.74,2.25,0.15,3.05
		c0.28,0.26,0.61,0.43,0.94,0.51c0.74,0.18,1.56-0.05,2.12-0.66c0.25-0.28,0.41-0.6,0.49-0.93
		C48.43,156.5,48.22,155.68,47.61,155.13z"/>
	<path class="st3" d="M64.95,234.78c-0.31-0.39-0.72-0.63-1.17-0.74c-0.64-0.16-1.33-0.03-1.88,0.42c-0.92,0.75-1.06,2.12-0.32,3.04
		c0.32,0.39,0.74,0.64,1.17,0.74c0.63,0.15,1.33,0.03,1.88-0.4c0.39-0.31,0.63-0.72,0.74-1.17
		C65.53,236.02,65.4,235.34,64.95,234.78z"/>
	<path class="st3" d="M60.29,229.01c-0.31-0.39-0.72-0.63-1.17-0.74c-0.63-0.15-1.33-0.03-1.88,0.42c-0.92,0.74-1.07,2.1-0.32,3.04
		c0.31,0.39,0.73,0.64,1.17,0.74c0.63,0.15,1.33,0.01,1.87-0.42c0.39-0.31,0.64-0.74,0.74-1.17
		C60.85,230.24,60.72,229.54,60.29,229.01z"/>
	<path class="st3" d="M36.97,200.06c-0.31-0.39-0.72-0.64-1.17-0.74c-0.63-0.15-1.33-0.03-1.87,0.42c-0.94,0.75-1.08,2.11-0.32,3.04
		c0.31,0.39,0.72,0.64,1.17,0.74c0.63,0.15,1.31,0.02,1.86-0.41c0.39-0.31,0.64-0.72,0.74-1.17
		C37.55,201.3,37.42,200.62,36.97,200.06z"/>
	<path class="st3" d="M41.63,205.85c-0.31-0.39-0.72-0.64-1.17-0.74c-0.63-0.15-1.33-0.03-1.87,0.42c-0.92,0.75-1.08,2.11-0.32,3.04
		c0.31,0.39,0.72,0.64,1.17,0.74c0.63,0.15,1.33,0.03,1.87-0.42c0.39-0.31,0.64-0.72,0.74-1.17
		C42.21,207.09,42.08,206.39,41.63,205.85z"/>
	<path class="st3" d="M32.31,194.29c-0.3-0.37-0.68-0.61-1.11-0.73l-0.06-0.01c-0.38-0.09-0.78-0.09-1.15,0.05
		c-0.25,0.07-0.49,0.19-0.71,0.38c-0.92,0.74-1.07,2.1-0.32,3.04c0.31,0.39,0.72,0.64,1.17,0.74c0.63,0.15,1.31,0.02,1.87-0.42
		c0.39-0.31,0.64-0.72,0.74-1.17C32.88,195.52,32.76,194.83,32.31,194.29z"/>
	<path class="st3" d="M55.63,223.22c-0.31-0.39-0.72-0.64-1.17-0.74c-0.63-0.15-1.33-0.03-1.88,0.42c-0.92,0.74-1.08,2.11-0.32,3.04
		c0.31,0.39,0.72,0.64,1.17,0.74c0.63,0.15,1.33,0.03,1.87-0.42c0.39-0.31,0.64-0.73,0.74-1.17
		C56.19,224.45,56.06,223.75,55.63,223.22z"/>
	<path class="st3" d="M46.29,211.64c-0.31-0.39-0.72-0.64-1.17-0.74c-0.63-0.15-1.31-0.02-1.86,0.41c-0.92,0.75-1.08,2.11-0.33,3.05
		c0.31,0.39,0.72,0.64,1.17,0.74c0.63,0.15,1.33,0.03,1.87-0.42c0.39-0.31,0.64-0.72,0.74-1.17
		C46.87,212.88,46.74,212.18,46.29,211.64z"/>
	<path class="st3" d="M50.97,217.42c-0.31-0.39-0.72-0.64-1.17-0.74c-0.64-0.16-1.33-0.03-1.88,0.42c-0.93,0.75-1.08,2.11-0.32,3.04
		c0.31,0.39,0.72,0.64,1.17,0.74c0.63,0.15,1.33,0.03,1.86-0.41c0.39-0.31,0.64-0.73,0.74-1.17
		C51.53,218.66,51.4,217.97,50.97,217.42z"/>
	<path class="st3" d="M113.38,230.93c-0.41-0.1-0.83-0.08-1.25,0.07c-1.12,0.41-1.69,1.65-1.28,2.77c0.26,0.7,0.84,1.2,1.52,1.36
		c0.39,0.1,0.83,0.07,1.25-0.08c0.7-0.26,1.2-0.85,1.36-1.52c0.1-0.41,0.08-0.83-0.07-1.25
		C114.64,231.58,114.06,231.1,113.38,230.93z"/>
	<path class="st3" d="M133.53,223.59c-0.41-0.1-0.83-0.08-1.25,0.07c-1.12,0.41-1.71,1.65-1.3,2.77c0.26,0.7,0.85,1.2,1.52,1.36
		c0.41,0.1,0.84,0.07,1.25-0.08c0.7-0.26,1.2-0.85,1.36-1.52c0.1-0.41,0.08-0.83-0.07-1.25
		C134.79,224.24,134.21,223.75,133.53,223.59z"/>
	<path class="st3" d="M106.67,233.38c-0.41-0.1-0.83-0.08-1.25,0.07c-1.12,0.41-1.71,1.65-1.3,2.77c0.26,0.7,0.85,1.2,1.52,1.36
		c0.41,0.1,0.84,0.07,1.25-0.08c0.7-0.26,1.2-0.85,1.36-1.52c0.1-0.41,0.08-0.83-0.07-1.25
		C107.94,234.03,107.36,233.55,106.67,233.38z"/>
	<path class="st3" d="M126.82,226.04c-0.41-0.1-0.84-0.09-1.26,0.06c-1.12,0.41-1.69,1.65-1.28,2.77c0.26,0.7,0.84,1.2,1.52,1.36
		c0.39,0.1,0.83,0.07,1.25-0.08c0.7-0.25,1.2-0.84,1.36-1.52c0.1-0.39,0.08-0.83-0.07-1.25
		C128.09,226.69,127.51,226.2,126.82,226.04z"/>
	<path class="st3" d="M120.11,228.49c-0.41-0.1-0.84-0.09-1.26,0.06c-1.12,0.41-1.71,1.65-1.3,2.77c0.26,0.7,0.85,1.2,1.52,1.36
		c0.41,0.1,0.84,0.07,1.25-0.07c0.7-0.27,1.2-0.86,1.37-1.54c0.1-0.41,0.08-0.83-0.07-1.25
		C121.36,229.13,120.78,228.65,120.11,228.49z"/>
	<path class="st3" d="M86.53,240.72c-0.41-0.1-0.84-0.09-1.26,0.06c-1.11,0.41-1.69,1.65-1.28,2.77c0.26,0.7,0.84,1.2,1.52,1.36
		c0.39,0.1,0.83,0.07,1.25-0.08c0.7-0.26,1.2-0.85,1.36-1.52c0.1-0.41,0.08-0.83-0.07-1.25C87.8,241.37,87.21,240.89,86.53,240.72z"
		/>
	<path class="st3" d="M93.24,238.27c-0.41-0.1-0.83-0.08-1.25,0.07c-1.12,0.41-1.71,1.65-1.3,2.77c0.26,0.7,0.85,1.2,1.52,1.36
		c0.41,0.1,0.84,0.07,1.25-0.08c0.7-0.26,1.2-0.85,1.36-1.52c0.1-0.41,0.08-0.83-0.07-1.25C94.51,238.92,93.93,238.44,93.24,238.27z
		"/>
	<path class="st3" d="M99.96,235.83c-0.41-0.1-0.84-0.09-1.26,0.06c-1.12,0.41-1.69,1.65-1.28,2.77c0.26,0.7,0.84,1.2,1.52,1.36
		c0.39,0.1,0.83,0.08,1.25-0.07c0.7-0.26,1.18-0.84,1.35-1.53c0.1-0.41,0.09-0.84-0.06-1.26
		C101.21,236.47,100.63,235.99,99.96,235.83z"/>
	<path class="st3" d="M141.41,184.32c0.1-0.42,0.08-0.87-0.1-1.31c-0.27-0.67-0.85-1.14-1.51-1.3c-0.42-0.1-0.87-0.08-1.31,0.1
		c-1.11,0.46-1.65,1.71-1.19,2.83c0.27,0.67,0.84,1.14,1.49,1.3c0.42,0.1,0.87,0.06,1.31-0.1
		C140.78,185.55,141.25,184.98,141.41,184.32z"/>
	<path class="st3" d="M132.99,162.29c-0.28-0.68-0.85-1.14-1.49-1.3c-0.43-0.11-0.89-0.07-1.33,0.11c-1.1,0.44-1.63,1.7-1.19,2.81
		c0.27,0.67,0.84,1.14,1.49,1.3c0.42,0.1,0.87,0.06,1.31-0.1c0.67-0.27,1.14-0.85,1.3-1.51
		C133.19,163.19,133.17,162.74,132.99,162.29z"/>
	<path class="st3" d="M137.33,178.93c0.68-0.28,1.14-0.85,1.3-1.51c0.1-0.42,0.08-0.87-0.1-1.31c-0.27-0.67-0.85-1.14-1.51-1.3
		c-0.42-0.1-0.87-0.08-1.31,0.1c-1.11,0.46-1.65,1.71-1.19,2.83c0.27,0.67,0.84,1.14,1.49,1.3
		C136.44,179.12,136.89,179.09,137.33,178.93z"/>
	<path class="st3" d="M133.25,172.12c0.42,0.1,0.87,0.06,1.31-0.1c0.67-0.27,1.14-0.85,1.3-1.51c0.1-0.42,0.08-0.87-0.1-1.31
		c-0.28-0.68-0.85-1.14-1.49-1.3c-0.43-0.11-0.89-0.07-1.33,0.11c-1.1,0.44-1.64,1.69-1.19,2.81
		C132.02,171.49,132.59,171.96,133.25,172.12z"/>
	<path class="st3" d="M141.27,188.72c-1.12,0.44-1.66,1.69-1.2,2.81c0.27,0.67,0.84,1.14,1.49,1.3c0.42,0.1,0.87,0.08,1.31-0.1
		c0.68-0.28,1.14-0.85,1.3-1.51c0.1-0.42,0.08-0.87-0.1-1.31c-0.27-0.67-0.84-1.14-1.49-1.3
		C142.17,188.51,141.7,188.55,141.27,188.72z"/>
	<path class="st3" d="M318.61,59.14c0.24,0.18,0.49,0.3,0.76,0.36c0.83,0.2,1.73-0.1,2.26-0.83c0.18-0.24,0.3-0.49,0.36-0.76
		c0.2-0.83-0.11-1.73-0.83-2.26c-0.24-0.18-0.49-0.3-0.77-0.37c-0.83-0.2-1.73,0.11-2.25,0.83
		C317.43,57.09,317.64,58.43,318.61,59.14z"/>
	<path class="st3" d="M314.34,64.96c0.24,0.16,0.51,0.29,0.77,0.35c0.83,0.2,1.72-0.1,2.25-0.82c0.18-0.24,0.3-0.51,0.37-0.77
		c0.2-0.83-0.1-1.73-0.83-2.25c-0.24-0.18-0.49-0.3-0.77-0.37c-0.81-0.2-1.72,0.1-2.25,0.83C313.18,62.9,313.39,64.25,314.34,64.96z
		"/>
	<path class="st3" d="M305.84,76.59c0.24,0.18,0.51,0.3,0.77,0.37c0.83,0.2,1.72-0.1,2.25-0.83c0.18-0.24,0.3-0.51,0.37-0.77
		c0.2-0.83-0.1-1.72-0.83-2.25c-0.24-0.18-0.49-0.3-0.76-0.36c-0.83-0.2-1.73,0.11-2.26,0.83
		C304.67,74.54,304.88,75.88,305.84,76.59z"/>
	<path class="st3" d="M310.1,70.77c0.24,0.18,0.49,0.3,0.76,0.36c0.83,0.2,1.73-0.1,2.26-0.83c0.18-0.24,0.3-0.49,0.36-0.76
		c0.2-0.83-0.11-1.73-0.83-2.26c-0.24-0.18-0.49-0.28-0.76-0.35c-0.83-0.2-1.74,0.08-2.26,0.82
		C308.92,68.72,309.13,70.07,310.1,70.77z"/>
	<path class="st3" d="M297.34,88.21c0.23,0.17,0.49,0.3,0.76,0.36c0.83,0.2,1.73-0.1,2.26-0.83c0.17-0.23,0.28-0.49,0.35-0.76
		c0.2-0.83-0.08-1.73-0.82-2.26c-0.24-0.18-0.49-0.28-0.76-0.35c-0.83-0.2-1.74,0.08-2.26,0.82
		C296.17,86.16,296.37,87.52,297.34,88.21z"/>
	<path class="st3" d="M301.59,82.41c0.24,0.18,0.49,0.28,0.76,0.35c0.83,0.2,1.73-0.1,2.26-0.82c0.18-0.24,0.3-0.49,0.37-0.77
		c0.2-0.83-0.11-1.73-0.83-2.25c-0.24-0.18-0.51-0.3-0.77-0.37c-0.83-0.2-1.72,0.1-2.25,0.83C300.41,80.34,300.63,81.7,301.59,82.41
		z"/>
	<path class="st3" d="M335.61,35.87c0.24,0.18,0.51,0.3,0.77,0.37c0.81,0.2,1.72-0.1,2.25-0.83c0.18-0.24,0.3-0.49,0.37-0.77
		c0.2-0.81-0.1-1.72-0.83-2.25c-0.22-0.17-0.49-0.28-0.76-0.35c-0.83-0.2-1.73,0.08-2.26,0.82
		C334.43,33.82,334.65,35.18,335.61,35.87z"/>
	<path class="st3" d="M276.66,105.57c0.36,0.09,0.75,0.08,1.14-0.04c0.75-0.23,1.3-0.84,1.48-1.55c0.09-0.36,0.08-0.75-0.04-1.14
		c-0.23-0.77-0.84-1.3-1.55-1.48c-0.36-0.09-0.75-0.08-1.14,0.04c-1.15,0.34-1.8,1.55-1.45,2.69
		C275.32,104.85,275.93,105.4,276.66,105.57z"/>
	<path class="st3" d="M322.85,53.32c0.24,0.18,0.49,0.3,0.77,0.37c0.81,0.2,1.72-0.1,2.25-0.83c0.18-0.24,0.3-0.49,0.37-0.77
		c0.2-0.81-0.1-1.72-0.83-2.25c-0.24-0.18-0.49-0.3-0.76-0.36c-0.83-0.2-1.73,0.11-2.26,0.83
		C321.68,51.27,321.89,52.63,322.85,53.32z"/>
	<path class="st3" d="M331.36,41.7c0.24,0.18,0.49,0.3,0.76,0.36c0.83,0.2,1.73-0.1,2.26-0.83c0.18-0.24,0.3-0.49,0.36-0.76
		c0.2-0.83-0.11-1.73-0.83-2.26c-0.24-0.18-0.51-0.3-0.77-0.37c-0.83-0.2-1.72,0.1-2.25,0.83C330.18,39.64,330.39,40.99,331.36,41.7
		z"/>
	<path class="st3" d="M327.11,47.52c0.23,0.16,0.49,0.28,0.76,0.35c0.83,0.2,1.73-0.1,2.26-0.82c0.18-0.24,0.28-0.49,0.35-0.76
		c0.2-0.83-0.1-1.74-0.83-2.26c-0.24-0.18-0.49-0.3-0.77-0.37c-0.81-0.2-1.72,0.1-2.25,0.83C325.94,45.45,326.14,46.81,327.11,47.52
		z"/>
	<path class="st3" d="M207.69,126.4c0.36,0.09,0.75,0.08,1.14-0.04c0.75-0.23,1.3-0.84,1.48-1.56c0.09-0.36,0.08-0.75-0.04-1.14
		c-0.23-0.77-0.84-1.32-1.57-1.49c-0.35-0.09-0.74-0.08-1.12,0.04c-1.15,0.36-1.79,1.57-1.44,2.71
		C206.36,125.68,206.97,126.23,207.69,126.4z"/>
	<path class="st3" d="M269.76,107.65c0.36,0.09,0.75,0.09,1.13-0.02c0.75-0.23,1.3-0.84,1.48-1.57c0.09-0.36,0.08-0.75-0.04-1.14
		c-0.23-0.75-0.84-1.3-1.56-1.48c-0.36-0.09-0.75-0.08-1.14,0.04c-1.14,0.35-1.79,1.55-1.44,2.69
		C268.43,106.94,269.05,107.48,269.76,107.65z"/>
	<path class="st3" d="M166.3,138.89c0.36,0.09,0.75,0.09,1.14-0.04c0.76-0.21,1.32-0.84,1.49-1.55c0.09-0.36,0.08-0.75-0.04-1.14
		c-0.23-0.75-0.84-1.3-1.57-1.48c-0.36-0.09-0.75-0.08-1.14,0.04c-1.14,0.35-1.79,1.55-1.44,2.69
		C164.98,138.19,165.59,138.72,166.3,138.89z"/>
	<path class="st3" d="M173.2,136.82c0.36,0.09,0.75,0.08,1.14-0.04c0.75-0.23,1.3-0.84,1.48-1.55c0.09-0.36,0.08-0.75-0.04-1.14
		c-0.23-0.77-0.84-1.32-1.57-1.49c-0.35-0.09-0.74-0.08-1.12,0.04c-1.14,0.35-1.79,1.57-1.44,2.71
		C171.88,136.1,172.49,136.64,173.2,136.82z"/>
	<path class="st3" d="M145.62,145.14c0.36,0.09,0.75,0.09,1.13-0.02c0.75-0.23,1.3-0.84,1.48-1.57c0.09-0.36,0.08-0.75-0.04-1.14
		c-0.23-0.75-0.84-1.3-1.55-1.48c-0.36-0.09-0.75-0.08-1.14,0.04c-1.14,0.35-1.79,1.55-1.44,2.69
		C144.29,144.43,144.9,144.97,145.62,145.14z"/>
	<path class="st3" d="M152.52,143.07c0.36,0.09,0.75,0.08,1.14-0.04c0.75-0.23,1.3-0.84,1.48-1.55c0.09-0.36,0.08-0.75-0.04-1.14
		c-0.23-0.75-0.84-1.3-1.56-1.48c-0.36-0.09-0.75-0.08-1.14,0.04c-1.15,0.34-1.8,1.55-1.45,2.69
		C151.19,142.36,151.8,142.89,152.52,143.07z"/>
	<path class="st3" d="M180.1,134.73c0.36,0.09,0.75,0.09,1.13-0.02c0.75-0.23,1.3-0.84,1.48-1.57c0.09-0.36,0.08-0.75-0.04-1.14
		c-0.23-0.75-0.84-1.3-1.56-1.48c-0.36-0.09-0.75-0.08-1.14,0.04c-1.15,0.34-1.79,1.55-1.44,2.71
		C178.78,134.02,179.39,134.55,180.1,134.73z"/>
	<path class="st3" d="M159.42,140.99c0.36,0.09,0.75,0.08,1.14-0.04c0.75-0.23,1.3-0.84,1.48-1.57c0.09-0.36,0.08-0.75-0.04-1.14
		c-0.23-0.75-0.84-1.3-1.55-1.48c-0.36-0.09-0.75-0.08-1.14,0.04c-1.15,0.34-1.8,1.55-1.46,2.7
		C158.08,140.26,158.69,140.81,159.42,140.99z"/>
	<path class="st3" d="M262.86,109.74c0.36,0.09,0.75,0.08,1.14-0.04c0.75-0.23,1.3-0.84,1.48-1.56c0.09-0.36,0.08-0.75-0.04-1.14
		c-0.23-0.77-0.84-1.32-1.57-1.49c-0.35-0.09-0.74-0.08-1.12,0.04c-1.14,0.35-1.79,1.55-1.44,2.71
		C261.53,109.02,262.14,109.57,262.86,109.74z"/>
	<path class="st3" d="M235.27,118.06c0.36,0.09,0.75,0.09,1.13-0.02c0.75-0.23,1.3-0.84,1.48-1.57c0.09-0.36,0.08-0.75-0.04-1.14
		c-0.23-0.75-0.84-1.3-1.56-1.48c-0.36-0.09-0.75-0.08-1.14,0.04c-1.14,0.35-1.79,1.55-1.44,2.69
		C233.95,117.36,234.56,117.89,235.27,118.06z"/>
	<path class="st3" d="M214.59,124.31c0.36,0.09,0.75,0.09,1.13-0.02c0.75-0.23,1.3-0.84,1.48-1.57c0.09-0.36,0.08-0.75-0.04-1.14
		c-0.23-0.75-0.84-1.3-1.55-1.48c-0.36-0.09-0.75-0.08-1.14,0.04c-1.15,0.34-1.8,1.55-1.44,2.71
		C213.25,123.6,213.86,124.13,214.59,124.31z"/>
	<path class="st3" d="M138.67,146.94l-0.22,0.21c0.08,0.03,0.18,0.06,0.26,0.08c0.36,0.09,0.75,0.08,1.14-0.04
		c0.77-0.23,1.32-0.84,1.49-1.57c0.09-0.35,0.08-0.74-0.04-1.12c-0.23-0.77-0.84-1.32-1.57-1.49c-0.36-0.09-0.75-0.08-1.14,0.04
		c-0.02,0.01-0.05,0.02-0.07,0.03C139.6,144.03,139.8,145.77,138.67,146.94z"/>
	<path class="st3" d="M187,132.65c0.36,0.09,0.75,0.08,1.14-0.04c0.75-0.23,1.3-0.84,1.48-1.55c0.09-0.36,0.08-0.75-0.04-1.14
		c-0.23-0.75-0.84-1.3-1.55-1.48c-0.36-0.09-0.75-0.08-1.14,0.04c-1.15,0.34-1.8,1.55-1.45,2.69
		C185.66,131.94,186.27,132.47,187,132.65z"/>
	<path class="st3" d="M242.17,115.99c0.36,0.09,0.75,0.08,1.14-0.04c0.75-0.23,1.3-0.84,1.48-1.56c0.09-0.36,0.08-0.75-0.04-1.14
		c-0.23-0.77-0.84-1.32-1.57-1.49c-0.35-0.09-0.74-0.08-1.12,0.04c-1.15,0.36-1.8,1.56-1.46,2.7
		C240.84,115.26,241.46,115.81,242.17,115.99z"/>
	<path class="st3" d="M194.91,126.35c-0.36-0.09-0.75-0.08-1.14,0.04c-1.14,0.35-1.79,1.55-1.44,2.71c0.23,0.75,0.84,1.3,1.57,1.48
		c0.35,0.09,0.75,0.08,1.14-0.04c0.75-0.23,1.3-0.84,1.48-1.55c0.09-0.36,0.08-0.75-0.04-1.14
		C196.25,127.08,195.64,126.53,194.91,126.35z"/>
	<path class="st3" d="M203.4,126.89c0.09-0.36,0.08-0.75-0.04-1.14c-0.23-0.75-0.84-1.3-1.56-1.48c-0.36-0.09-0.75-0.08-1.14,0.04
		c-1.14,0.35-1.79,1.55-1.44,2.69c0.23,0.77,0.84,1.3,1.55,1.48c0.36,0.09,0.75,0.09,1.14-0.04
		C202.69,128.23,203.22,127.62,203.4,126.89z"/>
	<path class="st3" d="M222.49,118.03c-0.36-0.09-0.75-0.08-1.14,0.04c-1.14,0.35-1.79,1.55-1.44,2.69c0.23,0.77,0.84,1.3,1.57,1.48
		c0.36,0.09,0.75,0.08,1.14-0.04c0.75-0.23,1.3-0.84,1.48-1.56c0.09-0.36,0.08-0.75-0.04-1.14
		C223.83,118.75,223.22,118.21,222.49,118.03z"/>
	<path class="st3" d="M257.1,111.78c0.77-0.23,1.32-0.84,1.49-1.57c0.09-0.35,0.08-0.74-0.04-1.12c-0.23-0.75-0.84-1.3-1.57-1.48
		c-0.36-0.09-0.75-0.08-1.14,0.04c-1.14,0.35-1.79,1.55-1.44,2.69c0.23,0.77,0.84,1.3,1.57,1.48
		C256.32,111.91,256.73,111.9,257.1,111.78z"/>
	<path class="st3" d="M228.37,120.15c0.36,0.09,0.75,0.08,1.14-0.04c0.77-0.23,1.32-0.84,1.49-1.57c0.09-0.35,0.08-0.74-0.04-1.12
		c-0.23-0.77-0.84-1.32-1.57-1.49c-0.36-0.09-0.75-0.08-1.14,0.04c-1.14,0.35-1.79,1.55-1.44,2.71
		C227.05,119.43,227.66,119.98,228.37,120.15z"/>
	<path class="st3" d="M250.08,109.69c-0.36-0.09-0.75-0.08-1.14,0.04c-1.14,0.35-1.79,1.55-1.44,2.71c0.23,0.75,0.84,1.29,1.57,1.46
		c0.35,0.09,0.75,0.09,1.13-0.02c0.75-0.23,1.3-0.84,1.48-1.57c0.09-0.36,0.08-0.75-0.04-1.14
		C251.42,110.42,250.81,109.87,250.08,109.69z"/>
	<path class="st3" d="M310.69,93.13c0.1-0.41,0.09-0.84-0.06-1.26c-0.26-0.7-0.85-1.19-1.53-1.35c-0.41-0.1-0.84-0.09-1.25,0.08
		c-1.12,0.41-1.69,1.65-1.28,2.77c0.26,0.7,0.84,1.18,1.51,1.35c0.41,0.1,0.85,0.09,1.27-0.08
		C310.04,94.39,310.52,93.8,310.69,93.13z"/>
	<path class="st3" d="M323.92,88.23c0.1-0.41,0.09-0.84-0.08-1.27c-0.26-0.7-0.84-1.18-1.51-1.35c-0.41-0.1-0.84-0.09-1.27,0.08
		c-1.11,0.41-1.69,1.65-1.27,2.78c0.26,0.7,0.84,1.18,1.51,1.35c0.41,0.1,0.84,0.09,1.27-0.08
		C323.28,89.49,323.76,88.91,323.92,88.23z"/>
	<path class="st3" d="M335.81,84.85c0.7-0.26,1.18-0.84,1.35-1.51c0.1-0.41,0.09-0.84-0.08-1.27c-0.26-0.7-0.84-1.18-1.51-1.35
		c-0.41-0.1-0.84-0.09-1.26,0.06c-1.13,0.42-1.7,1.66-1.29,2.79c0.26,0.7,0.85,1.19,1.53,1.35
		C334.95,85.03,335.39,85.01,335.81,84.85z"/>
	<path class="st3" d="M315.71,88.08c-0.41-0.1-0.84-0.09-1.26,0.06c-1.11,0.41-1.68,1.65-1.27,2.78c0.26,0.7,0.84,1.18,1.51,1.35
		c0.41,0.1,0.84,0.09,1.26-0.06c0.7-0.26,1.18-0.84,1.35-1.53c0.1-0.41,0.09-0.84-0.07-1.25C316.98,88.73,316.38,88.24,315.71,88.08
		z"/>
	<path class="st3" d="M326.42,86.02c0.26,0.7,0.84,1.18,1.51,1.35c0.41,0.1,0.84,0.09,1.26-0.06c0.7-0.26,1.18-0.84,1.35-1.51
		c0.1-0.41,0.09-0.84-0.08-1.27c-0.26-0.7-0.84-1.18-1.51-1.35c-0.41-0.1-0.84-0.09-1.26,0.06
		C326.58,83.66,325.99,84.9,326.42,86.02z"/>
	<path class="st3" d="M342.43,82.41c0.7-0.26,1.18-0.84,1.35-1.53c0.1-0.41,0.09-0.84-0.08-1.27c-0.26-0.7-0.84-1.17-1.52-1.33
		c-0.41-0.1-0.84-0.09-1.26,0.06c-1.12,0.41-1.69,1.65-1.28,2.77c0.26,0.7,0.85,1.19,1.53,1.35
		C341.57,82.57,342.01,82.56,342.43,82.41z"/>
	<path class="st3" d="M354.4,77.57c0.39,0.1,0.84,0.09,1.25-0.07c0.7-0.26,1.19-0.85,1.35-1.53c0.1-0.41,0.09-0.84-0.06-1.26
		c-0.26-0.7-0.84-1.17-1.52-1.33c-0.41-0.1-0.85-0.09-1.26,0.06c-1.12,0.41-1.69,1.65-1.28,2.77
		C353.14,76.92,353.72,77.41,354.4,77.57z"/>
	<path class="st3" d="M367.63,72.67c0.41,0.1,0.84,0.09,1.26-0.06c0.7-0.26,1.19-0.85,1.35-1.53c0.1-0.41,0.09-0.84-0.06-1.26
		c-0.26-0.7-0.86-1.17-1.53-1.34c-0.41-0.1-0.84-0.09-1.26,0.06c-1.11,0.41-1.68,1.65-1.27,2.78
		C366.37,72.03,366.95,72.51,367.63,72.67z"/>
	<path class="st3" d="M350.32,77.17c-0.26-0.7-0.84-1.18-1.53-1.35c-0.41-0.1-0.84-0.09-1.25,0.07c-1.13,0.42-1.7,1.66-1.29,2.79
		c0.26,0.7,0.85,1.19,1.53,1.35c0.41,0.1,0.84,0.09,1.25-0.08c0.7-0.26,1.18-0.84,1.35-1.51C350.48,78.03,350.47,77.6,350.32,77.17z
		"/>
	<path class="st3" d="M361.01,75.13c0.41,0.1,0.84,0.09,1.27-0.08c0.7-0.26,1.18-0.84,1.35-1.51c0.1-0.41,0.09-0.84-0.06-1.26
		c-0.26-0.7-0.85-1.19-1.53-1.35c-0.41-0.1-0.84-0.09-1.25,0.07c-1.13,0.42-1.7,1.66-1.29,2.79
		C359.75,74.48,360.33,74.96,361.01,75.13z"/>
	<path class="st3" d="M374.24,70.23c0.41,0.1,0.84,0.07,1.27-0.08c0.7-0.26,1.18-0.84,1.35-1.51c0.1-0.41,0.09-0.84-0.06-1.26
		c-0.26-0.7-0.85-1.19-1.53-1.35c-0.41-0.1-0.84-0.09-1.26,0.06c-1.11,0.43-1.68,1.67-1.27,2.78
		C372.99,69.57,373.57,70.07,374.24,70.23z"/>
	<path class="st3" d="M374.71,107.19c-0.1-0.02-0.18-0.04-0.27-0.05c-1.19-0.12-2.24,0.73-2.38,1.93c-0.12,1.08,0.61,2.08,1.64,2.33
		c0.08,0.02,0.18,0.04,0.27,0.05c1.11,0.12,2.09-0.6,2.34-1.64c0.02-0.1,0.04-0.18,0.05-0.27
		C376.48,108.44,375.76,107.45,374.71,107.19z"/>
	<path class="st3" d="M323.84,105.96c0.08,0.02,0.18,0.04,0.27,0.05c1.1,0.12,2.09-0.6,2.35-1.65c0.02-0.08,0.04-0.17,0.05-0.26
		c0.12-1.1-0.6-2.09-1.66-2.35c-0.08-0.02-0.17-0.04-0.26-0.05c-1.2-0.13-2.27,0.72-2.4,1.92
		C322.08,104.71,322.81,105.71,323.84,105.96z"/>
	<path class="st3" d="M360.2,105.6c-1.19-0.13-2.25,0.73-2.38,1.91c-0.13,1.1,0.59,2.09,1.63,2.34c0.08,0.02,0.19,0.03,0.29,0.04
		c1.08,0.13,2.07-0.59,2.32-1.63c0.02-0.1,0.04-0.18,0.05-0.28c0.12-1.08-0.59-2.07-1.63-2.32
		C360.39,105.63,360.3,105.61,360.2,105.6z"/>
	<path class="st3" d="M352.33,109.07c0.1,0.02,0.18,0.04,0.28,0.05c1.08,0.12,2.07-0.59,2.32-1.63c0.02-0.1,0.04-0.18,0.05-0.28
		c0.12-1.1-0.59-2.09-1.63-2.34c-0.1-0.02-0.18-0.04-0.28-0.05c-1.19-0.13-2.25,0.73-2.38,1.91
		C350.58,107.83,351.29,108.82,352.33,109.07z"/>
	<path class="st3" d="M347.81,106.71c0.02-0.1,0.04-0.18,0.05-0.28c0.13-1.08-0.59-2.07-1.63-2.32c-0.1-0.02-0.18-0.04-0.28-0.05
		c-1.18-0.14-2.25,0.71-2.38,1.91c-0.12,1.08,0.59,2.07,1.63,2.32c0.1,0.02,0.18,0.04,0.28,0.05
		C346.57,108.46,347.56,107.75,347.81,106.71z"/>
	<path class="st3" d="M317.75,100.99c-0.1-0.02-0.18-0.04-0.28-0.05c-1.18-0.14-2.25,0.73-2.39,1.91c-0.12,1.08,0.61,2.08,1.64,2.33
		c0.08,0.02,0.18,0.04,0.27,0.05c1.1,0.12,2.09-0.59,2.34-1.63c0.02-0.1,0.04-0.18,0.05-0.28
		C319.5,102.23,318.79,101.24,317.75,100.99z"/>
	<path class="st3" d="M367.61,106.43c-0.1-0.02-0.18-0.04-0.28-0.05c-1.18-0.14-2.25,0.73-2.39,1.91c-0.12,1.08,0.61,2.08,1.64,2.33
		c0.08,0.02,0.18,0.04,0.28,0.05c1.08,0.13,2.07-0.59,2.32-1.63c0.02-0.1,0.04-0.18,0.05-0.28
		C369.36,107.67,368.65,106.68,367.61,106.43z"/>
	<path class="st3" d="M339.11,103.32c-0.1-0.02-0.18-0.04-0.28-0.05c-1.19-0.13-2.25,0.73-2.38,1.91c-0.12,1.1,0.59,2.09,1.63,2.34
		c0.1,0.02,0.19,0.03,0.29,0.04c1.1,0.12,2.09-0.6,2.35-1.66c0.02-0.08,0.04-0.17,0.05-0.26
		C340.87,104.56,340.15,103.57,339.11,103.32z"/>
	<path class="st3" d="M331.99,102.54c-0.08-0.02-0.18-0.04-0.28-0.05c-1.19-0.12-2.25,0.73-2.38,1.91c-0.12,1.1,0.59,2.09,1.64,2.34
		c0.08,0.02,0.19,0.03,0.27,0.05c1.1,0.12,2.09-0.6,2.35-1.66c0.02-0.08,0.04-0.17,0.05-0.26
		C333.75,103.78,333.04,102.79,331.99,102.54z"/>
	<path class="st3" d="M302.47,103.63c0.1,0.02,0.18,0.04,0.28,0.05c1.08,0.12,2.07-0.59,2.32-1.63c0.02-0.1,0.04-0.18,0.05-0.28
		c0.12-1.11-0.6-2.09-1.64-2.34c-0.1-0.02-0.18-0.04-0.27-0.05c-0.66-0.07-1.29,0.16-1.72,0.59l-0.11,0.11
		c-0.3,0.33-0.49,0.75-0.55,1.22C300.72,102.39,301.43,103.37,302.47,103.63z"/>
	<path class="st3" d="M310.63,100.21c-0.1-0.02-0.18-0.04-0.28-0.05c-1.19-0.13-2.25,0.73-2.39,1.91c-0.12,1.1,0.6,2.09,1.64,2.34
		c0.08,0.02,0.19,0.03,0.29,0.04c1.08,0.13,2.07-0.59,2.32-1.63c0.02-0.1,0.04-0.18,0.05-0.28
		C312.37,101.45,311.66,100.46,310.63,100.21z"/>
</g>
</svg>
