<?xml version="1.0" encoding="utf-8"?>
<!-- Generator: Adobe Illustrator 22.1.0, SVG Export Plug-In . SVG Version: 6.00 Build 0)  -->
<svg version="1.1" id="Слой_1" xmlns="http://www.w3.org/2000/svg" xmlns:xlink="http://www.w3.org/1999/xlink" x="0px" y="0px"
	 viewBox="0 0 909 91" style="enable-background:new 0 0 909 91;" xml:space="preserve">
<style type="text/css">
	.st0{fill:#FFFFFF;}
</style>
<g>
	<path class="st0" d="M38.5,22.5v10.9l-6.6,8c2.5,2,4.3,4.4,5.3,7.3c0.6,1.3,0.9,2.5,1,3.6c0.1,1.1,0.1,2.2,0.1,3.2
		c-0.1,0.9-0.2,1.9-0.4,2.9c-0.2,1-0.5,2-0.9,2.8c-0.7,1.6-1.6,3.1-2.8,4.4c-1.2,1.3-2.5,2.4-4,3.4c-1.2,0.7-2.4,1.2-3.7,1.6
		s-2.7,0.7-4.1,0.8c-1.5,0-2.8-0.1-3.9-0.3s-2.1-0.5-2.9-0.8c-0.8-0.3-1.5-0.7-2.1-1s-1-0.6-1.4-0.9c-1.4-0.9-2.6-2.1-3.7-3.4
		c-1.1-1.3-1.9-2.8-2.5-4.5c-0.2-0.5-0.4-1.1-0.5-1.8c-0.2-0.7-0.3-1.3-0.4-1.9H16c0.5,1,1,1.7,1.7,2.2c0.6,0.5,1.3,0.8,1.8,1.1
		c0.7,0.2,1.4,0.4,2.1,0.4c1.4,0,2.8-0.5,3.9-1.5c1.2-1,1.8-2.5,1.8-4.3c0-1.6-0.6-3-1.7-4.2c-1.1-1.2-2.5-1.8-4.2-1.8H10.6V37.9
		h10.1l3.6-4.4H5.7V22.5H38.5z"/>
	<path class="st0" d="M89.8,71.5H78.9v-19H68.4v19H57.5V39.8l-5.2,6.3l-8.5-6.9l13.7-16.6h10.9v19H79v-19h10.9L89.8,71.5L89.8,71.5z
		"/>
	<path class="st0" d="M136.6,41.4v10.8h-4.9v19.3h-10.9V52.3h-11.5v19.3H98.5V41.4l15.5-18.9h17.6v18.9
		C131.7,41.4,136.6,41.4,136.6,41.4z M120.9,41.4v-9.9l-0.1,0.1l-8.1,9.9H120.9z"/>
	<path class="st0" d="M171.1,72.4l-16.7-20.2v19.4h-10.9v-49h10.9v18.7h10.9V22.5h10.9v29.6h-7.6v0.1l10.9,13.2L171.1,72.4z"/>
	<path class="st0" d="M219,71.5h-10.9V39.8l-10.9,13.2v18.6h-10.9v-49h10.9v13.2l10.9-13.2H219V71.5z"/>
	<path class="st0" d="M282.5,48.9c0.7,1.8,1,3.8,1,5.8c0,1-0.2,2.1-0.4,3.3c-0.2,1.2-0.5,2.2-0.8,3c0,0.1-0.1,0.3-0.2,0.5
		c-0.1,0.2-0.2,0.4-0.3,0.6l-0.4,0.7c-0.8,1.3-1.6,2.5-2.7,3.6s-2.2,2-3.4,2.8c-2.4,1.4-5,2.2-7.8,2.4h-18.8v-49h33.3v10.9l-6,7.3
		c0,0,0.1,0,0.1,0.1c1.5,0.9,2.7,2.1,3.8,3.5C281,45.7,281.9,47.2,282.5,48.9z M248.8,71.5V60.5V71.5z M259.8,37.9h4.5l3.7-4.5h-8.2
		V37.9z M266.8,60.5c0.6,0,1.2-0.1,1.9-0.3c0.7-0.2,1.3-0.5,1.9-1c0.6-0.5,1.1-1.1,1.5-1.8c0.4-0.8,0.6-1.6,0.6-2.7
		c0-1.6-0.6-3-1.7-4.1s-2.5-1.7-4.1-1.7h-7.1v11.6H266.8z"/>
	<path class="st0" d="M309.7,21.9c2.8,0,5.3,0.7,7.8,2s4.5,3.1,6.4,5.4c1.8,2.3,3.3,5,4.3,8s1.6,6.3,1.6,9.8s-0.5,6.8-1.6,9.8
		c-1,3.1-2.5,5.7-4.3,8c-1.8,2.3-3.9,4.1-6.4,5.4c-2.4,1.3-5,2-7.8,2s-5.3-0.7-7.8-2s-4.5-3.1-6.3-5.4c-1.8-2.3-3.2-5-4.3-8
		c-1-3.1-1.6-6.3-1.6-9.8s0.5-6.8,1.6-9.8c1-3.1,2.5-5.7,4.3-8s3.9-4.1,6.3-5.4C304.4,22.6,307,21.9,309.7,21.9z M309.7,61
		c1,0,2-0.3,3.1-1s2-1.7,2.8-2.9c0.8-1.2,1.5-2.7,2-4.4c0.5-1.7,0.8-3.5,0.8-5.5s-0.3-3.8-0.8-5.5c-0.5-1.7-1.2-3.2-2-4.4
		c-0.8-1.2-1.7-2.2-2.8-2.9c-1-0.7-2-1-3.1-1c-1,0-2,0.3-3,1s-2,1.7-2.8,2.9c-0.8,1.2-1.5,2.7-2,4.4c-0.5,1.7-0.8,3.5-0.8,5.5
		s0.3,3.8,0.8,5.5c0.5,1.7,1.2,3.2,2,4.4c0.8,1.2,1.7,2.2,2.8,2.9C307.8,60.6,308.8,61,309.7,61z"/>
	<path class="st0" d="M370.5,22.5v49h-38.1V60.6h4.8V41.4l15.6-18.8C352.8,22.5,370.5,22.5,370.5,22.5z M359.6,60.6V31.4l-11.5,14
		v15.3C348.1,60.6,359.6,60.6,359.6,60.6z"/>
	<path class="st0" d="M411.9,71.5H401V39.8l-10.9,13.2v18.6h-10.9v-49h10.9v13.2L401,22.5h10.9V71.5z"/>
	<path class="st0" d="M475.3,48.9c0.7,1.8,1,3.8,1,5.8c0,1-0.2,2.1-0.4,3.3c-0.2,1.2-0.5,2.2-0.8,3c0,0.1-0.1,0.3-0.2,0.5
		c-0.1,0.2-0.2,0.4-0.3,0.6l-0.3,0.7c-0.8,1.3-1.6,2.5-2.7,3.6c-1,1.1-2.2,2-3.4,2.8c-2.4,1.4-5,2.2-7.8,2.4h-18.8v-49h33.2v10.9
		l-6,7.3c0,0,0.1,0,0.1,0.1c1.5,0.9,2.7,2.1,3.8,3.5C473.8,45.7,474.7,47.2,475.3,48.9z M441.7,71.5V60.5V71.5z M452.6,37.9h4.5
		l3.7-4.5h-8.2V37.9z M459.7,60.5c0.6,0,1.2-0.1,1.8-0.3c0.7-0.2,1.3-0.5,1.9-1c0.6-0.5,1.1-1.1,1.5-1.8s0.6-1.6,0.6-2.7
		c0-1.6-0.6-3-1.7-4.1s-2.5-1.7-4.1-1.7h-7.1v11.6H459.7z"/>
	<path class="st0" d="M540.2,41.4v10.8h-4.9v19.3h-10.8V52.3h-11.5v19.3h-10.8V41.4l15.5-18.9h17.6v18.9
		C535.3,41.4,540.2,41.4,540.2,41.4z M524.4,41.4v-9.9l-0.1,0.1l-8.1,9.9H524.4z"/>
	<path class="st0" d="M566.3,61c1.5,0,3-0.8,4.5-2.3c1.5-1.5,2.6-3.5,3.3-6h11.7c-0.5,2.8-1.4,5.4-2.5,7.8c-1.2,2.4-2.6,4.5-4.3,6.2
		s-3.6,3.1-5.8,4.1c-2.2,1-4.4,1.5-6.8,1.5c-2.8,0-5.3-0.7-7.8-2c-2.4-1.3-4.5-3.1-6.4-5.4c-1.8-2.3-3.3-5-4.3-8
		c-1-3.1-1.6-6.3-1.6-9.8s0.5-6.8,1.6-9.8c1-3.1,2.5-5.7,4.3-8c1.8-2.3,3.9-4.1,6.4-5.4s5-2,7.8-2c2.4,0,4.6,0.5,6.8,1.5
		c2.2,1,4.1,2.4,5.8,4.1s3.2,3.8,4.3,6.2s2,5,2.5,7.8h-11.7c-0.8-2.5-1.8-4.5-3.3-6c-1.5-1.5-3-2.2-4.5-2.2c-1,0-2,0.3-3.1,1
		s-2,1.7-2.8,2.9c-0.8,1.2-1.5,2.7-2,4.4c-0.5,1.7-0.8,3.5-0.8,5.5s0.3,3.8,0.8,5.5c0.5,1.7,1.2,3.2,2,4.4s1.7,2.2,2.8,2.9
		C564.2,60.6,565.3,61,566.3,61z"/>
	<path class="st0" d="M628.2,33.5h-13.6v38.1h-10.9V33.5h-13.6V22.5h38.1V33.5z"/>
	<path class="st0" d="M636.7,22.5h32.6v29.6h-21.7v19.4h-10.9V22.5z M658.5,41.3v-7.9h-10.8v7.9H658.5z M658.5,41.2L658.5,41.2
		l-10.8,0.1v-0.1H658.5z M647.6,52.2h14.1H647.6z"/>
	<path class="st0" d="M696.1,21.9c2.8,0,5.3,0.7,7.8,2s4.5,3.1,6.4,5.4c1.8,2.3,3.3,5,4.3,8s1.6,6.3,1.6,9.8s-0.5,6.8-1.6,9.8
		s-2.5,5.7-4.3,8c-1.8,2.3-3.9,4.1-6.4,5.4c-2.4,1.3-5,2-7.8,2s-5.3-0.7-7.8-2s-4.5-3.1-6.3-5.4c-1.8-2.3-3.2-5-4.3-8
		c-1-3.1-1.6-6.3-1.6-9.8s0.5-6.8,1.6-9.8c1-3.1,2.5-5.7,4.3-8c1.8-2.3,3.9-4.1,6.3-5.4C690.8,22.6,693.4,21.9,696.1,21.9z
		 M696.1,61c1,0,2-0.3,3.1-1s2-1.7,2.8-2.9s1.5-2.7,2-4.4c0.5-1.7,0.8-3.5,0.8-5.5s-0.3-3.8-0.8-5.5c-0.5-1.7-1.2-3.2-2-4.4
		c-0.8-1.2-1.7-2.2-2.8-2.9c-1-0.7-2-1-3.1-1c-1,0-2,0.3-3,1s-2,1.7-2.8,2.9c-0.8,1.2-1.5,2.7-2,4.4c-0.5,1.7-0.8,3.5-0.8,5.5
		s0.3,3.8,0.8,5.5c0.5,1.7,1.2,3.2,2,4.4c0.8,1.2,1.7,2.2,2.8,2.9C694.2,60.6,695.2,61,696.1,61z"/>
	<path class="st0" d="M755.8,71.5h-10.9V33.3l-0.1,0.1l-11.4,13.9v24.3h-10.8V43.3l17.1-20.7h16.2L755.8,71.5L755.8,71.5z
		 M744.9,33.4L744.9,33.4L744.9,33.4L744.9,33.4z"/>
	<path class="st0" d="M782.2,21.9c2.8,0,5.3,0.7,7.8,2s4.5,3.1,6.4,5.4c1.8,2.3,3.3,5,4.3,8s1.6,6.3,1.6,9.8s-0.5,6.8-1.6,9.8
		s-2.5,5.7-4.3,8c-1.8,2.3-3.9,4.1-6.4,5.4c-2.4,1.3-5,2-7.8,2s-5.3-0.7-7.8-2s-4.5-3.1-6.3-5.4c-1.8-2.3-3.2-5-4.3-8
		c-1-3.1-1.6-6.3-1.6-9.8s0.5-6.8,1.6-9.8c1-3.1,2.5-5.7,4.3-8c1.8-2.3,3.9-4.1,6.3-5.4C776.9,22.6,779.5,21.9,782.2,21.9z
		 M782.2,61c1,0,2-0.3,3.1-1s2-1.7,2.8-2.9s1.5-2.7,2-4.4c0.5-1.7,0.8-3.5,0.8-5.5s-0.3-3.8-0.8-5.5c-0.5-1.7-1.2-3.2-2-4.4
		c-0.8-1.2-1.7-2.2-2.8-2.9c-1-0.7-2-1-3.1-1c-1,0-2,0.3-3,1s-2,1.7-2.8,2.9c-0.8,1.2-1.5,2.7-2,4.4c-0.5,1.7-0.8,3.5-0.8,5.5
		s0.3,3.8,0.8,5.5c0.5,1.7,1.2,3.2,2,4.4c0.8,1.2,1.7,2.2,2.8,2.9C780.3,60.6,781.3,61,782.2,61z"/>
	<path class="st0" d="M819.9,33.3L835.2,68l-9.9,4.3l-17.2-39V22.5h33.2v10.8C841.3,33.3,819.9,33.3,819.9,33.3z"/>
	<path class="st0" d="M869.2,22.5v49h-10.8V39.8l-5.3,6.4l-8.5-7l13.7-16.6H869.2z M869.2,13c0,0.8-0.2,1.6-0.5,2.3
		c-0.3,0.7-0.7,1.3-1.3,1.9c-0.6,0.5-1.2,1-1.9,1.3c-0.7,0.3-1.5,0.5-2.3,0.5s-1.6-0.2-2.3-0.5c-0.7-0.3-1.4-0.8-1.9-1.3
		c-0.6-0.5-1-1.2-1.3-1.9s-0.5-1.5-0.5-2.3c0-1.7,0.6-3.1,1.8-4.3s2.6-1.8,4.3-1.8s3.1,0.6,4.3,1.8C868.7,9.8,869.2,11.3,869.2,13z"
		/>
	<path class="st0" d="M887.9,13c0,0.8-0.2,1.6-0.5,2.3c-0.3,0.7-0.7,1.4-1.3,1.9c-0.6,0.5-1.2,1-1.9,1.3c-0.7,0.3-1.5,0.5-2.3,0.5
		s-1.6-0.2-2.3-0.5c-0.7-0.3-1.4-0.8-1.9-1.3c-0.6-0.5-1-1.2-1.3-1.9s-0.5-1.5-0.5-2.3c0-1.7,0.6-3.1,1.8-4.3
		c1.2-1.2,2.6-1.8,4.3-1.8s3.1,0.6,4.3,1.8C887.3,9.9,887.9,11.3,887.9,13z M901.9,22.5v49H891V39.6l-5.2,6.4l-8.4-6.9L891,22.5
		H901.9z M903.2,13c0,0.8-0.2,1.6-0.5,2.3c-0.3,0.7-0.7,1.4-1.3,1.9c-0.6,0.5-1.2,1-1.9,1.3c-0.7,0.3-1.5,0.5-2.3,0.5
		c-0.8,0-1.6-0.2-2.3-0.5c-0.7-0.3-1.4-0.8-1.9-1.3c-0.6-0.5-1-1.2-1.3-1.9s-0.5-1.5-0.5-2.3c0-1.7,0.6-3.1,1.8-4.3
		c1.2-1.2,2.6-1.8,4.3-1.8s3.1,0.6,4.3,1.8C902.6,9.9,903.2,11.3,903.2,13z"/>
</g>
</svg>
